<?xml version="1.0" encoding="utf-8"?>
<!-- Generator: Adobe Illustrator 23.0.1, SVG Export Plug-In . SVG Version: 6.00 Build 0)  -->
<svg version="1.1" id="Layer_1" xmlns="http://www.w3.org/2000/svg" xmlns:xlink="http://www.w3.org/1999/xlink" x="0px" y="0px"
	 viewBox="0 0 200 66" style="enable-background:new 0 0 200 66;" xml:space="preserve">
<style type="text/css">
	.st0{fill:#00B1E0;}
	.st1{fill:#F05B72;}
	.st2{fill:#00B0E0;}
</style>
<g>
	<path class="st0" d="M60.5,26.1H53v-3.4l19.8,0v3.4h-7.5v17.2h-4.8V26.1z M14.6,33.1c0,1.1,0.1,2,0.3,2.9c0.2,0.9,0.5,1.6,1,2.2
		c0.4,0.6,1,1.1,1.8,1.5c0.7,0.4,1.7,0.5,2.8,0.5c1.1,0,2.1-0.1,3.1-0.3c1-0.2,2-0.5,3-0.9l1.1,3.1c-1,0.5-2.2,0.9-3.6,1.2
		c-1.4,0.3-2.8,0.5-4.3,0.5c-1.9,0-3.5-0.3-4.8-0.8c-1.3-0.5-2.3-1.3-3.1-2.2c-0.8-0.9-1.3-2-1.6-3.3c-0.3-1.3-0.5-2.6-0.5-4.1
		c0-1.2,0.1-2.4,0.4-3.7c0.3-1.3,0.8-2.5,1.5-3.6c0.8-1.1,1.8-2,3.1-2.7c1.3-0.7,3.1-1.1,5.2-1.1c0.9,0,2,0.1,3.1,0.2
		c1.1,0.1,2.2,0.4,3.4,0.8l-0.9,3.3c-1-0.3-1.9-0.5-2.7-0.6C22,26,21.3,26,20.6,26c-1.9,0-3.4,0.6-4.4,1.9
		C15.1,29.1,14.6,30.9,14.6,33.1 M90.2,43.3l0-14H90l-9.7,14h-4.6V22.7l4.8,0v13.9h0.2l9.6-13.9H95v20.6H90.2z M45.3,43.3v-14h-0.2
		l-9.7,14l-4.6,0V22.7h4.8v13.9h0.2l9.6-13.9h4.6l0,20.6H45.3z"/>
	<path class="st1" d="M151.2,33.9l0,6.1l5.2,0c0.9,0,1.6-0.3,2.3-0.8c0.7-0.5,1-1.3,1-2.4c0-0.5-0.1-1-0.3-1.3
		c-0.2-0.4-0.4-0.7-0.8-0.9c-0.3-0.2-0.7-0.4-1.1-0.5c-0.4-0.1-0.9-0.2-1.4-0.2H151.2z M146.4,22.7l16,0v3.4h-11.2v4.7h5.8
		c1.1,0,2.2,0.1,3.1,0.4c0.9,0.3,1.7,0.6,2.4,1.2c0.7,0.5,1.2,1.1,1.5,1.9c0.4,0.8,0.6,1.6,0.6,2.7c0,1-0.2,1.9-0.5,2.7
		c-0.3,0.8-0.8,1.5-1.4,2c-0.6,0.5-1.3,1-2.2,1.3c-0.9,0.3-1.8,0.4-2.9,0.4h-11.2V22.7z M113.1,43.3V26.1h-6.1l-0.1,2.2
		c-0.2,2.2-0.3,4.3-0.5,6.2c-0.2,1.9-0.5,3.5-1,4.9c-0.5,1.4-1.3,2.5-2.3,3.4c-1,0.9-2.5,1.5-4.3,1.9l-1.2-3.1
		c1.1-0.4,2-0.9,2.7-1.6c0.6-0.6,1.1-1.4,1.4-2.4c0.3-1,0.5-2.3,0.6-3.8c0.1-1.5,0.2-3.4,0.3-5.6l0.3-5.3h15.1v20.6H113.1z
		 M130.3,34.6c-1.3,0.1-2.3,0.3-2.9,0.8c-0.6,0.5-0.9,1.1-0.9,1.9c0,0.9,0.3,1.6,0.8,2c0.6,0.5,1.5,0.7,2.8,0.7
		c0.8,0,1.7-0.2,2.7-0.5c0.9-0.3,1.9-0.8,2.7-1.4v-3.7L130.3,34.6z M140.1,40h2.8l0.3,2.5c-0.6,0.3-2.5,1.3-4.4,1.3
		c-2.3,0-2.9-1.1-3.1-2.6l-0.2,0c-0.8,0.6-1.4,1.1-2.2,1.4c-0.8,0.4-1.5,0.6-2.1,0.8c-0.7,0.2-1.3,0.3-1.8,0.3c-0.5,0-0.9,0-1.3,0
		c-1.3,0-2.4-0.2-3.2-0.6c-0.8-0.4-1.5-0.9-2-1.5c-0.5-0.6-0.8-1.3-1-1.9c-0.2-0.7-0.3-1.3-0.3-1.9c0-1,0.2-1.9,0.7-2.6
		c0.4-0.8,1.1-1.4,1.8-1.9c0.8-0.5,1.7-0.9,2.7-1.2c1-0.3,2.2-0.4,3.4-0.5l5.3-0.2v-1.2c0-1.5-0.3-2.6-0.9-3.2
		c-0.6-0.6-1.8-0.9-3.5-0.9c-1.1,0-2.2,0.1-3.4,0.3c-1.2,0.2-2.3,0.5-3.4,0.8c-0.1-0.5-0.7-2.5-0.9-3c1.2-0.5,2.7-0.9,4.2-1.2
		c1.6-0.3,3.1-0.4,4.6-0.4c1.2,0,2.3,0.1,3.3,0.4c1,0.2,1.8,0.6,2.5,1.2c0.7,0.5,1.2,1.3,1.6,2.2c0.4,0.9,0.6,2,0.6,3.3V40z"/>
	<path class="st1" d="M187.8,37.3c-2.4,0.6-4.8-0.9-5.4-3.2c-0.6-2.3,0.9-4.7,3.2-5.3c2.4-0.6,4.8,0.9,5.4,3.2
		C191.6,34.3,190.2,36.7,187.8,37.3"/>
	<path class="st2" d="M178.3,14.7c-1.5,1.4-1.5,3.8-0.1,5.2c1.4,1.5,3.8,1.5,5.4,0.1c1.5-1.4,1.5-3.8,0.1-5.2
		C182.2,13.3,179.8,13.3,178.3,14.7"/>
	<path class="st2" d="M164.7,7.3c-0.5,1.6,0.5,3.3,2.1,3.8c1.7,0.5,3.4-0.4,3.9-2.1c0.5-1.6-0.5-3.3-2.1-3.8
		C166.9,4.7,165.2,5.6,164.7,7.3"/>
	<path class="st2" d="M178.3,51.4c-1.5-1.4-1.5-3.8-0.1-5.2c1.4-1.5,3.8-1.5,5.4-0.1c1.5,1.4,1.5,3.8,0.1,5.2
		C182.2,52.7,179.8,52.8,178.3,51.4"/>
	<path class="st2" d="M164.7,58.8c-0.5-1.6,0.5-3.3,2.1-3.8c1.7-0.5,3.4,0.4,3.9,2.1c0.5,1.6-0.5,3.3-2.1,3.8
		C166.9,61.3,165.2,60.4,164.7,58.8"/>
</g>
</svg>
