<svg xmlns="http://www.w3.org/2000/svg" width="247px" height="48px" viewBox="0 0 247 48">
<path fill="#0080C9" d="M96.879,0H65.859c-1.248,0-2.444,0.496-3.326,1.378l-0.47,0.47c-1.838,1.837-4.816,1.837-6.653,0l-0.47-0.47
C54.059,0.496,52.862,0,51.615,0H20.53C9.191,0,0,9.191,0,20.53v6.94C0,38.808,9.191,48,20.53,48h31.554
c1.248,0,2.444-0.496,3.326-1.378c1.837-1.837,4.815-1.837,6.653,0C62.945,47.504,64.141,48,65.389,48h31.49
c11.338,0,20.53-9.192,20.53-20.53v-6.94C117.409,9.191,108.217,0,96.879,0"/>
<path fill="#FFFFFF" d="M94.703,37.357h-8.264c-2.55,0-4.616-2.067-4.616-4.616V14.615c0-2.549,2.066-4.616,4.616-4.616h8.264
c6.688,0,12.109,5.422,12.109,12.109v3.139C106.812,31.935,101.39,37.357,94.703,37.357 M87.566,32.783h7.137
c4.161,0,7.535-3.374,7.535-7.535v-3.139c0-4.161-3.374-7.535-7.535-7.535h-7.137c-0.556,0-1.007,0.451-1.007,1.007v16.195
C86.558,32.331,87.01,32.783,87.566,32.783"/>
<path fill="#FFFFFF" d="M69.869,9.943c-2.531,0-4.747,1.71-5.388,4.158l-4.713,17.995c-0.169,0.646-0.676,0.743-0.963,0.743
c-0.287,0-0.794-0.097-0.964-0.743L53.13,14.101c-0.642-2.448-2.857-4.158-5.388-4.158c-3.071,0-5.57,2.498-5.57,5.57v6.484v15.206
h4.574V21.996v-6.484c0-0.549,0.447-0.995,0.995-0.995c0.452,0,0.848,0.305,0.963,0.743l4.713,17.994
c0.651,2.487,2.816,4.159,5.388,4.159c2.571,0,4.736-1.672,5.387-4.159l4.714-17.994c0.114-0.438,0.51-0.743,0.963-0.743
c0.549,0,0.995,0.447,0.995,0.995v21.69h4.574v-21.69C75.439,12.441,72.94,9.943,69.869,9.943"/>
<path fill="#4DD6B5" d="M32.362,29.139c-1.09,2.266-3.725,3.671-6.47,3.671h-2.327c-4.092,0-7.42-3.328-7.42-7.419v-3.393
c0-4.091,3.328-7.42,7.42-7.42h2.327c2.744,0,5.478,1.295,6.465,3.673l4.307-1.683c-1.707-4.209-6.088-6.57-10.773-6.57h-2.425
c-6.616,0-11.999,5.382-11.999,11.999v3.393c0,6.616,5.382,11.999,11.999,11.999h2.425c4.684,0,9.446-2.664,10.77-6.57
L32.362,29.139z"/>
<path fill="#0080C9" d="M144.448,3.293c0.686,0.62,1.029,1.555,1.029,2.806v5.151h-1.942v-1.07c-0.252,0.384-0.611,0.677-1.078,0.88
c-0.466,0.203-1.028,0.304-1.687,0.304c-0.658,0-1.234-0.113-1.728-0.337c-0.494-0.225-0.875-0.538-1.144-0.938
c-0.269-0.4-0.403-0.853-0.403-1.358c0-0.79,0.293-1.423,0.881-1.901c0.587-0.477,1.511-0.716,2.773-0.716h2.271V5.984
c0-0.614-0.184-1.086-0.551-1.415c-0.368-0.329-0.913-0.494-1.637-0.494c-0.494,0-0.979,0.077-1.457,0.23
c-0.477,0.154-0.88,0.368-1.21,0.642l-0.806-1.497c0.461-0.351,1.015-0.62,1.662-0.807c0.647-0.186,1.333-0.28,2.057-0.28
C142.772,2.363,143.763,2.674,144.448,3.293z M142.572,9.514c0.4-0.236,0.683-0.573,0.848-1.012v-1.02h-2.123
c-1.185,0-1.777,0.39-1.777,1.168c0,0.373,0.148,0.669,0.445,0.889c0.296,0.219,0.707,0.329,1.234,0.329
C141.714,9.868,142.172,9.75,142.572,9.514z"/>
<path fill="#0080C9" d="M148.027,2.462h2.057v3.571h4.427V2.462h2.057v8.788h-2.057V7.778h-4.427v3.472h-2.057V2.462z"/>
<path fill="#0080C9" d="M165.578,3.293c0.686,0.62,1.029,1.555,1.029,2.806v5.151h-1.942v-1.07c-0.252,0.384-0.611,0.677-1.078,0.88
c-0.466,0.203-1.028,0.304-1.687,0.304c-0.658,0-1.234-0.113-1.728-0.337c-0.494-0.225-0.875-0.538-1.144-0.938
c-0.269-0.4-0.403-0.853-0.403-1.358c0-0.79,0.293-1.423,0.881-1.901c0.587-0.477,1.511-0.716,2.773-0.716h2.271V5.984
c0-0.614-0.184-1.086-0.551-1.415c-0.368-0.329-0.913-0.494-1.637-0.494c-0.494,0-0.979,0.077-1.457,0.23
c-0.477,0.154-0.88,0.368-1.21,0.642l-0.806-1.497c0.461-0.351,1.015-0.62,1.662-0.807c0.647-0.186,1.333-0.28,2.057-0.28
C163.902,2.363,164.893,2.674,165.578,3.293z M163.702,9.514c0.4-0.236,0.683-0.573,0.848-1.012v-1.02h-2.123
c-1.185,0-1.777,0.39-1.777,1.168c0,0.373,0.148,0.669,0.445,0.889c0.296,0.219,0.707,0.329,1.234,0.329
C162.844,9.868,163.302,9.75,163.702,9.514z"/>
<path fill="#0080C9" d="M177.122,2.462v8.788h-2.057V4.207h-3.291l-0.082,1.744c-0.055,1.163-0.162,2.137-0.321,2.921
c-0.159,0.785-0.428,1.404-0.806,1.86c-0.378,0.455-0.897,0.683-1.555,0.683c-0.307,0-0.686-0.06-1.136-0.181l0.099-1.728
c0.153,0.033,0.285,0.049,0.395,0.049c0.417,0,0.729-0.167,0.938-0.502c0.209-0.335,0.343-0.735,0.403-1.201
c0.06-0.466,0.112-1.133,0.157-2l0.148-3.39H177.122z"/>
<path fill="#0080C9" d="M179.887,2.462h2.057v5.793l4.855-5.793h1.876v8.788h-2.057V5.457l-4.838,5.793h-1.893V2.462z"/>
<path fill="#0080C9" d="M197.849,7.424c0.302,0.345,0.452,0.76,0.452,1.242c0,0.538-0.181,1.012-0.543,1.424
c-0.362,0.411-0.861,0.732-1.497,0.963c-0.636,0.23-1.361,0.346-2.172,0.346c-0.68,0-1.344-0.08-1.991-0.239
c-0.648-0.159-1.234-0.387-1.761-0.683l0.592-1.53c0.428,0.242,0.911,0.428,1.448,0.56c0.537,0.132,1.075,0.198,1.613,0.198
c0.691,0,1.231-0.107,1.621-0.321c0.389-0.214,0.584-0.507,0.584-0.88c0-0.34-0.151-0.603-0.452-0.79
c-0.302-0.186-0.727-0.28-1.275-0.28h-1.711V6.05h1.547c0.516,0,0.919-0.088,1.21-0.263c0.291-0.175,0.436-0.422,0.436-0.741
c0-0.318-0.176-0.57-0.527-0.757c-0.351-0.186-0.834-0.28-1.448-0.28c-0.878,0-1.805,0.214-2.781,0.642l-0.527-1.514
c1.152-0.538,2.315-0.806,3.489-0.806c0.746,0,1.415,0.101,2.008,0.304c0.592,0.203,1.056,0.488,1.391,0.856
c0.334,0.368,0.502,0.787,0.502,1.259c0,0.428-0.132,0.809-0.395,1.144c-0.263,0.335-0.625,0.595-1.086,0.782
C197.122,6.829,197.547,7.078,197.849,7.424z"/>
<path fill="#0080C9" d="M207.287,6.116c0.592,0.505,0.889,1.218,0.889,2.139c0,0.966-0.327,1.712-0.979,2.238
c-0.653,0.527-1.577,0.784-2.773,0.773l-3.983-0.016V2.462h2.057v2.88l2.222,0.017C205.839,5.359,206.695,5.611,207.287,6.116z
M205.625,9.374c0.318-0.263,0.477-0.647,0.477-1.152c0-0.494-0.154-0.856-0.461-1.086c-0.307-0.23-0.773-0.351-1.399-0.362
l-1.745-0.016v2.979l1.745,0.017C204.846,9.764,205.307,9.637,205.625,9.374z M209.311,2.462h2.057v8.788h-2.057V2.462z"/>
<path fill="#0080C9" d="M143.42,19.636c0.735,0.39,1.311,0.927,1.728,1.613c0.417,0.686,0.625,1.462,0.625,2.328
c0,0.867-0.209,1.646-0.625,2.337c-0.417,0.691-0.993,1.232-1.728,1.621c-0.735,0.389-1.563,0.584-2.485,0.584
c-0.801,0-1.525-0.132-2.172-0.395c-0.647-0.263-1.196-0.642-1.645-1.136l1.185-1.152c0.691,0.691,1.541,1.037,2.551,1.037
c0.746,0,1.385-0.2,1.917-0.601c0.532-0.4,0.875-0.935,1.029-1.604h-4.065v-1.481h4.048c-0.165-0.647-0.51-1.16-1.037-1.539
c-0.527-0.378-1.158-0.568-1.893-0.568c-1.009,0-1.859,0.351-2.551,1.053l-1.185-1.152c0.439-0.504,0.984-0.886,1.637-1.144
c0.653-0.258,1.379-0.387,2.181-0.387C141.857,19.052,142.684,19.247,143.42,19.636z"/>
<path fill="#0080C9" d="M151.418,24.45h-1.597v3.522h-2.057v-8.788h2.057v3.555h1.646l2.6-3.555h2.205l-3.193,4.229l3.406,4.558
h-2.419L151.418,24.45z"/>
<path fill="#0080C9" d="M159.185,27.511c-0.724-0.384-1.289-0.919-1.695-1.605c-0.406-0.685-0.609-1.461-0.609-2.329
c0-0.866,0.203-1.64,0.609-2.32c0.406-0.68,0.968-1.212,1.687-1.596c0.718-0.384,1.539-0.576,2.46-0.576
c0.866,0,1.626,0.176,2.279,0.527c0.653,0.351,1.144,0.856,1.473,1.514l-1.58,0.922c-0.252-0.406-0.568-0.71-0.946-0.913
c-0.378-0.203-0.793-0.304-1.242-0.304c-0.768,0-1.404,0.25-1.909,0.749c-0.505,0.499-0.757,1.166-0.757,1.999
c0,0.834,0.25,1.501,0.749,1.999c0.499,0.5,1.138,0.749,1.917,0.749c0.45,0,0.864-0.101,1.242-0.304
c0.379-0.203,0.694-0.507,0.946-0.913l1.58,0.922c-0.34,0.658-0.836,1.166-1.489,1.522c-0.653,0.357-1.407,0.535-2.263,0.535
C160.726,28.087,159.91,27.895,159.185,27.511z"/>
<path fill="#0080C9" d="M175.626,19.184v8.788h-2.041v-7.043h-4.328v7.043H167.2v-8.788H175.626z"/>
<path fill="#0080C9" d="M186.601,24.236h-6.895c0.121,0.647,0.436,1.16,0.946,1.539c0.51,0.379,1.144,0.568,1.901,0.568
c0.966,0,1.761-0.318,2.386-0.954l1.102,1.267c-0.395,0.472-0.894,0.828-1.497,1.07c-0.604,0.241-1.284,0.362-2.041,0.362
c-0.966,0-1.816-0.192-2.551-0.576c-0.735-0.384-1.303-0.919-1.703-1.605c-0.401-0.685-0.601-1.461-0.601-2.329
c0-0.856,0.195-1.626,0.584-2.312c0.389-0.685,0.93-1.22,1.621-1.604c0.691-0.384,1.47-0.576,2.337-0.576
c0.856,0,1.621,0.189,2.295,0.568c0.675,0.378,1.202,0.911,1.58,1.596c0.379,0.686,0.568,1.479,0.568,2.378
C186.635,23.769,186.624,23.972,186.601,24.236z M180.521,21.315c-0.455,0.39-0.732,0.908-0.831,1.555h4.986
c-0.088-0.636-0.357-1.152-0.806-1.547c-0.45-0.395-1.01-0.592-1.679-0.592C181.533,20.73,180.976,20.925,180.521,21.315z"/>
<path fill="#0080C9" d="M196.056,19.644c0.675,0.373,1.204,0.9,1.588,1.58c0.384,0.68,0.576,1.465,0.576,2.353
c0,0.889-0.192,1.676-0.576,2.362c-0.384,0.686-0.913,1.215-1.588,1.588c-0.675,0.373-1.44,0.559-2.296,0.559
c-1.185,0-2.123-0.395-2.814-1.185v4.262h-2.057v-11.98h1.958v1.152c0.34-0.417,0.759-0.73,1.259-0.938
c0.499-0.208,1.05-0.313,1.654-0.313C194.616,19.085,195.381,19.271,196.056,19.644z M195.398,25.569
c0.488-0.505,0.732-1.168,0.732-1.991c0-0.823-0.244-1.486-0.732-1.991c-0.488-0.505-1.111-0.757-1.868-0.757
c-0.494,0-0.938,0.113-1.333,0.337c-0.395,0.225-0.707,0.546-0.938,0.963c-0.23,0.417-0.346,0.9-0.346,1.448
c0,0.549,0.115,1.031,0.346,1.448c0.231,0.417,0.543,0.738,0.938,0.963c0.395,0.225,0.839,0.337,1.333,0.337
C194.287,26.325,194.909,26.073,195.398,25.569z"/>
<path fill="#0080C9" d="M206.893,20.928h-3.077v7.043h-2.057v-7.043h-3.094v-1.744h8.228V20.928z"/>
<path fill="#0080C9" d="M208.39,19.184h2.057v3.571h4.427v-3.571h2.057v8.788h-2.057v-3.472h-4.427v3.472h-2.057V19.184z"/>
<path fill="#0080C9" d="M221.21,27.511c-0.713-0.384-1.27-0.919-1.67-1.605c-0.401-0.685-0.601-1.461-0.601-2.329
c0-0.866,0.2-1.64,0.601-2.32c0.4-0.68,0.957-1.212,1.67-1.596c0.713-0.384,1.514-0.576,2.403-0.576c0.9,0,1.706,0.192,2.419,0.576
c0.713,0.384,1.27,0.916,1.67,1.596c0.4,0.68,0.6,1.454,0.6,2.32c0,0.867-0.2,1.643-0.6,2.329c-0.401,0.686-0.957,1.221-1.67,1.605
c-0.713,0.384-1.52,0.576-2.419,0.576C222.724,28.087,221.923,27.895,221.21,27.511z M225.489,25.569
c0.493-0.505,0.741-1.168,0.741-1.991c0-0.823-0.247-1.486-0.741-1.991c-0.494-0.505-1.119-0.757-1.876-0.757
c-0.757,0-1.38,0.252-1.868,0.757c-0.488,0.505-0.732,1.168-0.732,1.991c0,0.823,0.244,1.487,0.732,1.991
c0.488,0.505,1.111,0.757,1.868,0.757C224.369,26.325,224.995,26.073,225.489,25.569z"/>
<path fill="#0080C9" d="M237.074,20.928h-4.69v7.043h-2.057v-8.788h6.747V20.928z"/>
<path fill="#0080C9" d="M239.707,27.511c-0.713-0.384-1.27-0.919-1.67-1.605c-0.401-0.685-0.601-1.461-0.601-2.329
c0-0.866,0.2-1.64,0.601-2.32c0.4-0.68,0.957-1.212,1.67-1.596c0.713-0.384,1.514-0.576,2.403-0.576c0.9,0,1.706,0.192,2.419,0.576
c0.713,0.384,1.27,0.916,1.67,1.596c0.4,0.68,0.6,1.454,0.6,2.32c0,0.867-0.2,1.643-0.6,2.329c-0.401,0.686-0.957,1.221-1.67,1.605
c-0.713,0.384-1.52,0.576-2.419,0.576C241.221,28.087,240.42,27.895,239.707,27.511z M243.986,25.569
c0.493-0.505,0.741-1.168,0.741-1.991c0-0.823-0.247-1.486-0.741-1.991c-0.494-0.505-1.119-0.757-1.876-0.757
c-0.757,0-1.38,0.252-1.868,0.757c-0.488,0.505-0.732,1.168-0.732,1.991c0,0.823,0.244,1.487,0.732,1.991
c0.488,0.505,1.111,0.757,1.868,0.757C242.866,26.325,243.492,26.073,243.986,25.569z"/>
<path fill="#0080C9" d="M146.497,35.904l-4.114,9.496c-0.384,0.954-0.85,1.626-1.399,2.016c-0.549,0.389-1.212,0.584-1.991,0.584
c-0.439,0-0.872-0.071-1.3-0.214c-0.428-0.143-0.779-0.34-1.053-0.592l0.823-1.514c0.198,0.186,0.43,0.335,0.7,0.445
c0.269,0.109,0.54,0.164,0.814,0.164c0.362,0,0.661-0.093,0.897-0.28c0.236-0.186,0.452-0.499,0.65-0.938l0.148-0.346l-3.834-8.821
h2.139l2.765,6.5l2.781-6.5H146.497z"/>
<path fill="#0080C9" d="M155.096,36.365c0.675,0.373,1.204,0.9,1.588,1.58c0.384,0.681,0.576,1.465,0.576,2.354
c0,0.889-0.192,1.676-0.576,2.361c-0.384,0.686-0.913,1.215-1.588,1.588c-0.675,0.373-1.44,0.559-2.296,0.559
c-1.185,0-2.123-0.395-2.814-1.185v4.262h-2.057v-11.98h1.959v1.152c0.34-0.417,0.759-0.729,1.259-0.938
c0.499-0.208,1.05-0.313,1.654-0.313C153.655,35.806,154.421,35.993,155.096,36.365z M154.437,42.29
c0.488-0.505,0.732-1.168,0.732-1.991c0-0.823-0.244-1.487-0.732-1.991c-0.488-0.505-1.111-0.757-1.868-0.757
c-0.494,0-0.938,0.112-1.333,0.337c-0.395,0.225-0.707,0.546-0.938,0.963c-0.23,0.417-0.345,0.9-0.345,1.448
c0,0.548,0.115,1.031,0.345,1.448c0.231,0.417,0.543,0.738,0.938,0.963c0.395,0.225,0.839,0.337,1.333,0.337
C153.326,43.046,153.949,42.794,154.437,42.29z"/>
<path fill="#0080C9" d="M160.814,44.232c-0.713-0.384-1.27-0.919-1.67-1.605c-0.401-0.685-0.601-1.462-0.601-2.328
c0-0.867,0.2-1.64,0.601-2.32c0.4-0.68,0.957-1.212,1.67-1.596c0.713-0.384,1.514-0.576,2.403-0.576c0.9,0,1.706,0.192,2.419,0.576
c0.713,0.384,1.27,0.916,1.67,1.596c0.4,0.68,0.6,1.454,0.6,2.32c0,0.867-0.2,1.643-0.6,2.328c-0.401,0.686-0.957,1.221-1.67,1.605
c-0.713,0.384-1.52,0.576-2.419,0.576C162.328,44.807,161.527,44.616,160.814,44.232z M165.093,42.29
c0.493-0.505,0.741-1.168,0.741-1.991c0-0.823-0.247-1.487-0.741-1.991c-0.494-0.505-1.119-0.757-1.876-0.757
c-0.757,0-1.38,0.252-1.868,0.757c-0.488,0.505-0.732,1.168-0.732,1.991c0,0.823,0.244,1.486,0.732,1.991
c0.488,0.505,1.111,0.757,1.868,0.757C163.974,43.046,164.599,42.794,165.093,42.29z"/>
<path fill="#0080C9" d="M177.929,42.224c0,0.79-0.296,1.399-0.889,1.827c-0.592,0.428-1.47,0.642-2.633,0.642h-4.476v-8.788h4.295
c1.075,0,1.914,0.198,2.518,0.593c0.603,0.395,0.905,0.954,0.905,1.678c0,0.45-0.118,0.839-0.354,1.168
c-0.236,0.329-0.568,0.587-0.996,0.774C177.386,40.447,177.929,41.149,177.929,42.224z M171.89,39.574h2.156
c1.064,0,1.596-0.368,1.596-1.103c0-0.713-0.532-1.07-1.596-1.07h-2.156V39.574z M175.938,42.092c0-0.384-0.132-0.672-0.395-0.864
c-0.263-0.192-0.675-0.288-1.234-0.288h-2.419v2.254h2.353C175.373,43.195,175.938,42.827,175.938,42.092z"/>
<path fill="#0080C9" d="M180.117,35.904h2.057v3.571h4.427v-3.571h2.057v8.788h-2.057V41.22h-4.427v3.472h-2.057V35.904z"/>
<path fill="#0080C9" d="M198.845,35.904v8.788h-1.843v-2.65h-2.32l-1.794,2.65h-2.205l2.074-2.929
c-0.636-0.219-1.122-0.557-1.457-1.012c-0.335-0.455-0.502-1.018-0.502-1.687c0-1.009,0.357-1.788,1.07-2.337
c0.713-0.549,1.695-0.823,2.946-0.823H198.845z M192.888,39.13c0,0.988,0.642,1.481,1.925,1.481h2.189v-2.979h-2.123
C193.551,37.632,192.888,38.132,192.888,39.13z"/>
</svg>
