<svg width="253" height="65" fill="none" xmlns="http://www.w3.org/2000/svg">
  <g clip-path="url(#a)" fill="#FF7823">
    <path d="M41.34 7.233c4.53 0 9.062.01 13.592-.014.602 0 .796.15.794.783-.019 9 .022 18-.023 27-.034 6.783-2.082 12.898-6.41 18.137-4.182 5.068-9.489 8.333-15.937 9.603-8.588 1.693-16.347-.264-23.132-5.764-5.13-4.16-8.363-9.591-9.639-16.136-1.626-8.306.13-15.881 5.191-22.594 4.222-5.596 9.834-9.125 16.731-10.4a38.943 38.943 0 0 1 6.202-.596c4.208-.082 8.42-.021 12.631-.02Zm7.014 23.146c-.044-.435-.085-1.1-.186-1.756-.423-2.773-1.716-5.012-4.098-6.527-2.283-1.452-4.801-1.771-7.405-1.284-1.94.362-3.662 1.248-4.985 2.77-2.68 3.088-3.08 6.673-1.995 10.456 1.79 6.239 9.15 8.156 14.207 5.128 3.19-1.91 4.372-4.962 4.462-8.787ZM10.166 34.73c.044.436.039.785.121 1.112.493 1.974 1.865 3.122 3.657 3.833 2.334.925 4.765 1.109 7.22.71 1.983-.323 3.826-1.005 5.202-2.624 1.74-2.048 1.387-5.18-.841-6.67-.665-.448-1.45-.71-2.188-1.06.28-.112.578-.22.866-.346 2.036-.883 3.018-2.902 2.383-5.033-.507-1.7-1.787-2.672-3.36-3.279-2.208-.851-4.5-.94-6.801-.562-1.915.316-3.697.978-5.005 2.534-.694.826-1.097 1.768-1.056 2.907h3.75c.38-.458.625-.98 1.035-1.208 2.102-1.18 4.318-1.222 6.474-.226 1.37.633 1.416 2.385.118 3.157a5.236 5.236 0 0 1-2.2.657c-1.262.105-2.541.029-3.823.029v3.428c.76 0 1.478-.02 2.182 0 1.051.034 2.112.03 3.152.168 1.3.175 2.239 1.123 2.297 2.148.051.959-.831 1.938-2.09 2.283a8.717 8.717 0 0 1-4.355.108c-1.217-.281-2.44-.65-2.81-2.066h-3.928ZM31.54 50.244c-.251-.034-.399-.093-.529-.065-.682.141-1.357.316-2.04.457-.98.203-1.96-.266-2.319-1.16h4.835c.148-1.639-.482-2.71-1.903-3.028a5.557 5.557 0 0 0-2.377 0 2.59 2.59 0 0 0-1.634 1.104 2.63 2.63 0 0 0-.395 1.943c.237 1.265 1.068 1.964 2.21 2.17 1.38.249 2.81.298 3.857-.953a4.63 4.63 0 0 0 .295-.468Zm-7.48-3.817h-4.995v2.215c0 1.22-.188 1.49-1.291 1.877v1.341c.625-.226 1.23-.314 1.677-.632 1.218-.867.872-2.298 1.07-3.552h2.105v3.995h1.435v-5.244Zm13.876-.012h-5.828v1.228h2.218v4.037h1.462v-4.06h2.148v-1.205ZM157.656 12.952V7.315c.121-.038.245-.064.371-.078 1.798 0 3.594 0 5.39-.012.425 0 .618.1.618.577-.011 8.7-.008 17.4-.008 26.162h-6.318v-5.366c-2.774 3.963-6.535 6.055-11.291 6.153-4.721.098-8.743-1.583-11.729-5.356-4.698-5.934-3.592-15.179 2.18-19.69 6.07-4.746 16.036-4.294 20.787 3.247Zm-10.31 16.302c1.615.08 3.093-.387 4.47-1.193 2.868-1.678 4.63-4.34 6.196-7.165.071-.129.015-.38-.065-.53-1.133-2.124-2.441-4.124-4.258-5.723-2.627-2.313-5.618-3.243-9.043-2.18-4.678 1.457-7.193 6.039-5.874 10.627 1.009 3.512 4.625 6.286 8.574 6.163ZM81.32 6.84 73.092.068c.38-.032.582-.065.785-.065 2.436 0 4.879-.018 7.313.013.38.015.747.145 1.052.374 3.62 2.845 7.278 5.645 10.805 8.6 2.824 2.365 5.153 5.162 5.982 8.915.898 4.065-.052 7.71-2.632 10.922-2.631 3.28-6.119 5.113-10.201 5.752-6.31.989-13.463-1.95-16.583-8.058-2.298-4.499-1.891-10.215 1.569-14.16 2.68-3.043 6.048-4.756 10.136-5.52ZM74.924 20.36c0 .596-.055 1.192.013 1.774a9.54 9.54 0 0 0 .404 1.788c1.478 4.621 6.46 6.857 10.952 5.57 4.492-1.289 7.263-6.057 6.226-10.584-.443-1.947-1.47-3.558-2.86-4.904-1.574-1.522-3.262-2.926-4.928-4.348-.156-.134-.574-.129-.77-.014-1.58.935-3.205 1.814-4.682 2.898-2.61 1.92-4.281 4.438-4.355 7.82ZM129.317 33.988h-6.357V15.669c-.907 1.083-1.686 2.008-2.461 2.938-3.489 4.194-6.977 8.388-10.463 12.583-.591.72-1.193 1.444-1.767 2.185-.353.458-.746.684-1.363.666-1.694-.049-3.392-.016-5.136-.016V7.235c2.039 0 4.029-.011 6.017.029.13 0 .361.404.363.621.028 2.257.017 4.514.017 6.77v10.98c.791-.938 1.452-1.715 2.104-2.5 3.673-4.423 7.345-8.849 11.017-13.276.631-.76 1.253-1.528 1.902-2.27a.945.945 0 0 1 .592-.34c1.82-.027 3.64-.017 5.529-.017l.006 26.756ZM208.028 6.627c3.983-.03 7.576 1.154 10.656 3.697 2.651 2.19 4.279 5.005 4.759 8.48.874 6.323-2.529 11.894-8.279 14.405-5.783 2.534-11.477 2.142-16.77-1.404-4.287-2.866-6.357-7.026-5.967-12.192.368-4.918 2.994-8.496 7.245-10.881 2.645-1.49 5.176-2.096 8.356-2.105Zm8.892 14.057c.105-5.296-4.063-8.929-8.427-9.145-5.175-.256-9.463 3.726-9.427 9.128.032 5.443 3.965 9.116 8.896 9.162a8.76 8.76 0 0 0 3.477-.66 8.814 8.814 0 0 0 2.94-1.983 8.907 8.907 0 0 0 1.931-2.989 8.97 8.97 0 0 0 .61-3.513ZM232.28 17.668h14.317V7.28c.273-.02.485-.046.696-.046 1.6 0 3.203.031 4.801-.018.699-.022.914.168.911.894-.029 6.573-.017 13.145-.017 19.717v6.143h-6.331V22.626h-14.341v11.359h-6.375v-.701c0-8.407-.005-16.814-.014-25.221 0-.63.124-.868.806-.85 1.819.05 3.64.018 5.555.018l-.008 10.437Z"/>
    <path d="M196.361 34.023c-2.927 0-5.628.01-8.328-.019-.245 0-.52-.241-.726-.43a3017.083 3017.083 0 0 1-9.835-9.094c-1.087-1.003-2.176-2.002-3.353-3.085v12.567h-6.358V7.28h6.288v11.65c.952-.796 1.76-1.462 2.561-2.137 3.647-3.08 7.3-6.164 10.959-9.251.173-.164.394-.268.63-.298 2.288-.017 4.583 0 6.867 0 .036 0 .071.05.203.149l-13.96 12.372 15.052 14.26ZM160.528 57.551h1.627v3.952l.801.177v2.645h-1.418l-.065-1.264h-8.04v-5.443c.03-.02.067-.068.108-.07 1.479-.1 1.479-.1 1.479 1.39v2.626h1.911v-3.038c0-1.008 0-1.008.994-1h.615v4.037h1.994l-.006-4.012ZM71.344 49.205c1.302-1.481 2.623-2.948 3.897-4.453.526-.622 1.162-.367 1.774-.357.073 0 .201.262.203.404.012 2.276.009 4.553.009 6.88h-1.712v-4.902c-1.244 1.412-2.444 2.613-3.445 3.967-.703.948-1.501 1.13-2.576.93v-7.32c.444 0 .898-.05 1.33.028.149.027.319.381.325.596.03 1.164.014 2.33.016 3.494v.713l.179.02ZM188.097 50.347h1.991c0-1.136.043-2.236-.016-3.346-.037-.71.313-.732.847-.734.534-.001.88.036.841.746-.057 1.085-.014 2.176-.014 3.298l.763.138v2.57h-1.424v-1.272h-8.114v-5.395h1.557v3.979h1.922v-3.968h1.644l.003 3.984ZM130.632 55.274c0 .325-.023.596 0 .86.048.5-.204.629-.649.665-.852.07-1.704.171-2.551.298-.686.103-1.125.536-1.449 1.298 1.065-.62 2.07-.918 3.185-.596 1.32.381 1.999 1.142 2.056 2.343.066 1.358-.544 2.266-1.852 2.76-1.825.69-3.886.047-4.629-1.445-1.352-2.709.31-5.665 3.279-5.872.85-.058 1.691-.2 2.61-.311Zm-2.925 6.506c.266-.012.531-.041.793-.09.603-.162 1.058-.48 1.111-1.181.058-.732-.295-1.221-.977-1.32-.578-.083-1.224-.1-1.762.086-.346.119-.753.648-.766 1.007-.015.401.309.895.63 1.193.25.235.72.23.971.305ZM139.343 57.547h5.299v3.995l.887.128v2.658h-1.419l-.068-1.25h-4.252l-.111 1.266h-1.516c0-.81-.009-1.616.011-2.422a.421.421 0 0 1 .235-.313c.754-.228.909-.832.928-1.49.024-.841.006-1.676.006-2.572Zm1.733 1.5c-.158.886-.296 1.702-.444 2.492h2.406v-2.491h-1.962ZM96.497 57.526v4.013l.837.131v2.671h-1.397V63.09h-4.435v1.234h-1.464v-2.611c1.004-.284 1.138-1.117 1.138-2.054 0-.683-.184-1.627.173-1.975.358-.35 1.294-.15 1.976-.15 1.027-.017 2.055-.007 3.172-.007Zm-3.656 1.53c-.148.873-.275 1.663-.41 2.493h2.393v-2.494H92.84ZM120.102 57.526v5.462h-1.519v-2.935l-.171-.046c-.457.848-.943 1.68-1.36 2.55-.197.41-.472.584-.859.468-.284-.087-.62-.264-.765-.502-.502-.828-.931-1.7-1.552-2.524v3.01h-1.572v-5.127a.407.407 0 0 1 .101-.264c.319-.314 1.953-.038 2.175.369.541.988 1.072 1.982 1.663 3.08.495-.919.992-1.737 1.387-2.6.327-.714.754-1.102 1.57-.948.265.049.541.007.902.007ZM132.512 49.784c.485-.895.997-1.703 1.38-2.57.34-.775.841-1.073 1.65-.94.272.03.546.045.82.044v5.366h-1.52v-2.881l-.17-.057c-.443.819-.9 1.628-1.317 2.46-.18.362-.365.559-.815.545-.449-.013-.706-.149-.907-.565a18.196 18.196 0 0 0-1.423-2.441v2.942h-1.617v-5.394a17.421 17.421 0 0 1 1.811.023c.179.018.37.299.483.494.542.958 1.058 1.929 1.625 2.974ZM113.046 50.35l.852.072v2.592h-1.433V51.77h-4.416v1.256h-1.467v-2.575c.887-.233 1.139-.925 1.148-1.78 0-.619.013-1.24.075-1.855.019-.184.217-.502.339-.505 1.626-.033 3.238-.022 4.91-.022l-.008 4.06Zm-4.101-.02h2.429v-2.562h-1.922c-.173.895-.34 1.724-.504 2.561h-.003ZM104.033 63.014h-1.443l-.078-.596a.575.575 0 0 0-.192.05 3.241 3.241 0 0 1-2.975.567c-.887-.243-1.46-.875-1.45-1.64.01-.836.616-1.508 1.592-1.639.945-.124 1.9-.158 3.04-.246-.206-.249-.351-.587-.518-.596a10.68 10.68 0 0 0-2.07.024c-.573.068-1.13.281-1.692.432l-.224-.298c.228-.325.388-.763.698-.96 1.408-.895 2.914-.856 4.4-.224.624.266.93.829.917 1.556-.021 1.166-.005 2.327-.005 3.57Zm-1.626-2.201c-.792 0-1.505-.034-2.218.02-.214.016-.443.247-.591.439-.041.055.158.397.313.48.778.407 2.001-.034 2.5-.94h-.004ZM152.44 48.312c-.051-.643-.417-.928-1.321-.866-.462.032-.905.307-1.37.412-.466.104-.985.14-1.479.206l-.179-.229c.25-.347.428-.812.762-1.02 1.395-.864 2.887-.844 4.35-.184.609.276.94.826.928 1.553-.021 1.159 0 2.317 0 3.51h-1.434l-.102-.617c-.98.785-2.036 1.011-3.197.671-.958-.28-1.478-.915-1.409-1.717.07-.802.723-1.477 1.677-1.571.918-.095 1.847-.095 2.774-.148Zm.045 1.193c-.755 0-1.443-.04-2.12.02-.241.023-.483.266-.669.461-.043.045.096.379.226.461.739.47 2.158-.03 2.563-.94v-.002ZM106.146 49.514h-4.854c.425.972 1.627 1.306 2.787.894.62-.217 1.285-.298 1.922-.447.055.084.11.169.166.252-.189.288-.331.63-.577.854-1.252 1.151-4.02 1.093-5.213-.119-.797-.808-1.004-1.805-.608-2.87.444-1.192 1.42-1.721 2.604-1.85.877-.095 1.757-.041 2.552.458 1.023.635 1.301 1.59 1.221 2.828Zm-1.602-1.254c-.84-1.004-2.583-.964-3.153 0h3.153ZM206.797 49.511h-4.879c.414.97 1.626 1.31 2.781.903.619-.219 1.286-.298 1.931-.447l.167.255c-.191.285-.334.619-.58.844-1.265 1.16-4.009 1.109-5.208-.11-.796-.807-1.004-1.803-.61-2.869.444-1.192 1.42-1.721 2.603-1.85.85-.093 1.701-.044 2.486.418 1.078.623 1.346 1.598 1.309 2.856Zm-1.604-1.239c-.615-.867-1.384-.778-2.12-.694-.426.047-.907.114-1.062.694h3.182ZM170.041 60.819h-4.812c.47.95 1.586 1.255 2.753.885.632-.201 1.302-.29 1.956-.428l.147.236c-.229.313-.408.685-.694.928-1.278 1.074-3.808.962-5.044-.18-.842-.778-.946-1.756-.678-2.781.312-1.193 1.248-1.777 2.365-1.916a6.277 6.277 0 0 1 2.366.201c.979.264 1.906 1.297 1.641 3.055Zm-4.787-1.263h3.187c-.683-1.075-2.423-1.07-3.187 0ZM127.63 49.492h-4.809c.051.275.194.524.406.705.212.18.48.281.757.286.657.04 1.331-.163 1.995-.252.538-.072 1.079-.128 1.706-.203-.185.875-.71 1.278-1.319 1.53a4.477 4.477 0 0 1-3.289.074c-1.392-.492-2.079-1.59-1.909-3.029.148-1.201 1.378-2.3 2.735-2.374a5.491 5.491 0 0 1 1.603.101c1.664.414 2.272 1.33 2.124 3.162Zm-4.777-1.25h3.191c-.67-.958-2.347-.967-3.191 0ZM111.364 60.802h-4.755c.296.884 1.406 1.257 2.53.943.711-.2 1.444-.322 2.169-.48l.134.226c-.179.271-.318.581-.541.808-1.264 1.277-4.273 1.137-5.413-.252-.686-.835-.779-1.81-.398-2.78.401-1.02 1.263-1.564 2.307-1.719a5.084 5.084 0 0 1 1.888.044c1.424.34 2.4 1.443 2.079 3.21Zm-1.542-1.23c-.799-1.101-2.514-1.073-3.21 0h3.21ZM177.163 60.819h-4.75c.295.873 1.424 1.24 2.555.924.696-.195 1.416-.312 2.126-.464l.148.278c-.212.279-.385.596-.641.83-1.248 1.123-4.015 1.044-5.164-.173-.753-.794-.979-1.762-.602-2.811.169-.509.484-.955.905-1.283.422-.328.93-.522 1.461-.558a5.996 5.996 0 0 1 2.427.258c1.251.417 1.775 1.543 1.535 2.999Zm-1.592-1.246c-.691-1.103-2.471-1.093-3.141 0h3.141ZM194.757 49.486c.166.745.726.978 1.214 1.003.657.034 1.331-.182 1.989-.274.522-.072 1.046-.118 1.571-.175l.148.206c-.296.353-.547.782-.912 1.043-1.278.926-3.716.76-4.801-.272-1.359-1.291-1.14-3.411.493-4.323a3.892 3.892 0 0 1 3.798-.078c1.121.56 1.506 1.553 1.353 2.871l-4.853-.001Zm.104-1.233h3.121c-.67-1-2.478-.985-3.121 0ZM171.82 46.218c1.895 0 3.017.798 3.347 2.409a2.463 2.463 0 0 1-.752 2.35c-1.257 1.223-3.992 1.214-5.282.023a2.693 2.693 0 0 1-.681-2.846c.457-1.273 1.478-1.75 2.705-1.937.221-.016.442-.015.663.001Zm-.101 4.284c.837-.046 1.464-.343 1.72-.86a1.26 1.26 0 0 0-.158-1.447c-.675-.825-2.437-.773-3.086.077a1.262 1.262 0 0 0-.237 1.048 1.263 1.263 0 0 0 .649.851c.336.178.734.225 1.112.331ZM83.05 60.307c.148 2.087-2.07 3.044-3.885 2.849a4.671 4.671 0 0 1-.992-.237c-1.465-.502-2.103-1.544-1.922-3.12.124-1.112 1.262-2.199 2.553-2.246a7.818 7.818 0 0 1 2.64.298c1.123.37 1.606 1.265 1.606 2.456Zm-3.427 1.385c1.136 0 1.763-.447 1.794-1.28.04-1.087-1.083-1.81-2.304-1.49-1.008.266-1.42.85-1.231 1.746.134.647.779 1.024 1.741 1.024ZM180.139 50.128c-.77-.061-1.435-.17-1.809.547-.565 1.08-1.479 1.242-2.65.977l1.349-1.712c-.592-.436-1.109-.912-1.055-1.774.06-.918.476-1.666 1.378-1.74 1.433-.114 2.882-.03 4.366-.03v5.28h-1.579v-1.548Zm-.047-2.55c-.591 0-1.138-.075-1.65.028-.313.063-.755.35-.821.615-.13.528.42.597.78.642.547.06 1.106.016 1.691.016v-1.301ZM114.844 53.676v-1.358h.525c1.183-.017 1.479-.482.949-1.522-.729-1.45-1.46-2.902-2.194-4.353 1.142-.44 1.677-.241 2.172.781.386.795.773 1.59 1.164 2.385.031.063.072.121.174.299.444-.886.846-1.703 1.253-2.518.62-1.245.703-1.284 2.244-.996-.429.866-.847 1.714-1.269 2.561-.507 1.014-1.004 2.03-1.528 3.035-.726 1.373-1.368 1.915-3.49 1.686ZM142.454 49.706v1.965h-1.584v-5.34h1.569v1.917h3.028V46.74c-.01-.637.466-.465.788-.447.322.018.865-.25.866.447v4.94h-1.626v-1.974h-3.041ZM152.843 57.596c-1.143 2.206-2.18 4.353-3.353 6.422-.645 1.135-1.845 1.025-3.009.918v-1.218c.055-.028.093-.069.135-.07 1.721-.076 1.922-.419 1.16-1.938-.572-1.137-1.151-2.272-1.722-3.41-.106-.212-.188-.439-.327-.765.54 0 .979-.043 1.403.02.187.03.401.244.499.43.535 1.018 1.035 2.054 1.626 3.217.435-.874.819-1.64 1.202-2.416.67-1.372.67-1.372 2.386-1.19ZM134.851 61.17c.476-.955.973-1.836 1.359-2.764.285-.69.673-1.032 1.427-.884.245.03.492.045.739.044-.707 1.427-1.372 2.779-2.045 4.128a45.937 45.937 0 0 1-.777 1.502c-.901 1.66-1.627 2.005-3.57 1.697V63.7c.402-.04.8-.11 1.192-.207.665-.21.788-.549.484-1.152-.666-1.319-1.333-2.637-2.001-3.955-.118-.234-.223-.477-.34-.724 1.331-.38 1.626-.255 2.202.894.402.81.799 1.622 1.202 2.431.037.065.08.125.128.182ZM93.533 46.322h5.136v5.35h-1.565v-3.914h-1.955c-.161 1.889-.024 4.041-2.9 4.007v-1.266c1.142-.43 1.284-.64 1.284-1.938.002-.718 0-1.435 0-2.239ZM83.666 59.367c.088-.894.443-1.327 1.078-1.57 1.182-.456 2.41-.499 3.569-.041.443.177.887.727 1.034 1.192.103.338-.295.832-.48 1.257a5 5 0 0 1 .562.691c.349.583.094 1.416-.58 1.767-1.44.745-2.926.694-4.373.039a1.333 1.333 0 0 1-.655-.564 1.35 1.35 0 0 1-.176-.85c.65-.022 1.204-.093 1.86.299.526.311 1.354.132 2.046.113.124 0 .24-.298.36-.447-.148-.097-.296-.26-.456-.278-.557-.067-1.12-.083-1.712-.122v-1.12c.45-.037.91-.043 1.357-.122.232-.041.444-.213.661-.326-.186-.15-.349-.367-.56-.435-.707-.227-1.34-.091-2 .313-.388.232-.97.14-1.535.204ZM161.62 48.128c-.852.149-1.508.311-2.156-.23-.51-.425-1.245-.402-1.887-.149-.578.234-.975.605-.95 1.33.025.724.466 1.113 1.05 1.253.761.184 1.497.15 2.217-.41.373-.287 1.035-.2 1.599-.287-.179 1.289-.926 1.984-2.366 2.207a4.148 4.148 0 0 1-2.772-.465c-1.733-.996-1.879-3.312-.296-4.516 1.141-.865 3.352-.928 4.496-.042.436.337.717.867 1.065 1.309ZM75.624 60.858c-.087 1.49-1.387 2.235-2.913 2.312a4.586 4.586 0 0 1-1.651-.272c-1.466-.5-2.07-1.522-1.907-3.072.115-1.097 1.272-2.158 2.548-2.293 1.035-.105 2.048-.098 2.972.504a1.975 1.975 0 0 1 .923 1.549c-.697 0-1.304.15-1.945-.379-1.012-.824-2.757-.181-2.881.937-.068.624.179 1.043.698 1.341.739.415 1.852.188 2.549-.279.405-.271 1.014-.232 1.607-.349ZM91.908 48.272c-.822.014-1.406.117-2.034-.35-1.035-.763-2.625-.267-2.84.817a1.652 1.652 0 0 0 .359 1.233c.537.596 1.922.706 2.513.16.57-.523 1.15-.418 1.807-.403.19.796-.327 1.21-.83 1.57-1.194.856-3.323.776-4.498-.123-1.519-1.161-1.45-3.317.147-4.378 1.448-.966 3.772-.787 4.803.404.236.268.353.647.573 1.07ZM84.828 48.302c-.876-.015-1.458.055-2.085-.395-1.017-.727-2.579-.241-2.79.799a1.695 1.695 0 0 0 .377 1.285c.553.596 1.861.596 2.539.149.731-.495.731-.495 1.796-.373.12.78-.386 1.21-.927 1.573-1.183.793-3.217.726-4.375-.104-1.56-1.121-1.526-3.34.068-4.427 1.452-.99 3.819-.792 4.851.435.217.255.32.61.546 1.058ZM165.722 47.704v3.994h-1.524v-3.971h-2.206v-1.45h4.823c1.275 0 1.307.041 1.035 1.424l-2.128.003ZM207.464 53.51c.092-.34.204-.674.335-1.002.192-.39.262-.693-.046-1.116-.164-.227-.11-.894.086-1.043.284-.222.862-.32 1.173-.172.272.13.53.705.474 1.027a5.173 5.173 0 0 1-.723 1.9c-.164.259-.741.247-1.299.406ZM44.27 30.538c-.094 2.022-.601 3.848-2.181 5.179a5.171 5.171 0 0 1-6.295.292 5.238 5.238 0 0 1-1.528-1.65c-1.406-2.35-1.261-5.943.32-8.018 1.201-1.576 2.81-2.317 4.744-2.087 2.349.285 3.829 1.733 4.531 3.963.234.747.278 1.548.41 2.321ZM30.04 48.406h-3.354c.187-.806.851-.894 1.444-.979 1.013-.134 1.635.212 1.91.98Z"/>
  </g>
  <defs>
    <clipPath id="a">
      <path fill="#fff" d="M0 0h253v65H0z"/>
    </clipPath>
  </defs>
</svg>
