<svg width="119" height="12" viewBox="0 0 119 12" fill="none" xmlns="http://www.w3.org/2000/svg"><path d="M105.876.139v2.357h4.89V12h2.798V2.496h4.936V.139h-12.624zm-6.445 9.5h-3.585c-1.602 0-2.26-.34-2.26-2.15v-2.94c0-1.864.388-2.19 2.26-2.19h3.585c1.624 0 2.246.532 2.246 1.778h2.8C104.477.804 102.741 0 99.972 0h-4.649c-3.442 0-4.536.977-4.536 4.446v3.366c0 3.179 1.029 4.188 4.266 4.188h5.208c3.45 0 4.216-.94 4.23-4.102h-2.814c0 1.435-.574 1.741-2.246 1.741zM76.07 12h11.953V9.76h-9.155V7.04h8.867V4.974h-8.867V2.375h9.155V.14H76.07V12zM61.363 2.496h4.889V12h2.799V2.496h4.939V.139H61.363v2.357zM57.182 4.48c0-1.728-.571-2.121-2.24-2.121h-3.607c-1.754 0-2.248.443-2.248 2.136v3.163c0 1.554.494 1.981 2.194 1.981h3.711c1.783 0 2.19-.389 2.19-2V4.48zm2.799-.258v3.725c0 2.957-.959 4.053-4.23 4.053h-5.142c-3.14 0-4.314-1.179-4.314-4.053V4.222C46.295.977 47.425 0 50.609 0h5.142c2.894 0 4.23.888 4.23 4.222zM35.516 9.64h-.011L31.63.14h-4.818V12h2.8V2.55l3.99 9.45h3.82l3.994-9.461V12h2.798V.139h-4.821l-3.878 9.5zM12.098 12h11.95V9.76h-9.155V7.04h8.866V4.974h-8.866V2.375h9.156V.14h-11.95V12zM0 .139h10.03v2.357H2.792V12H0V.139z" fill="#007934"/></svg>