<svg width="120" height="120" viewBox="0 0 120 120" fill="none" xmlns="http://www.w3.org/2000/svg">
<path d="M20.1049 98.1384H47.5098C67.9326 109.732 91.6718 115.097 104.763 116.481C108.08 117 110 117 110 117C97.083 114.577 77.533 108.175 60.7759 98.6575C47.6844 91.2166 35.8147 81.8724 28.658 70.9707C20.9777 59.2038 16.6138 47.0908 15.7411 36.7083C14.8683 26.1527 17.4866 17.3275 23.4214 12.3093C29.7054 7.118 37.0366 4.69541 44.8915 4.17628C34.4183 3.31107 23.9451 5.56062 15.7411 12.4823C3.52231 22.6918 3.34775 51.2438 20.1049 74.6046C20.1049 74.7776 20.2795 74.7776 20.2795 74.9507V98.1384H20.1049ZM109.825 92.428V73.3933C107.382 75.6428 103.367 77.0272 98.4795 77.5463C92.021 78.0654 84.3406 76.8541 76.4857 73.5663C74.3911 72.7011 72.2964 71.6629 70.3763 70.6246C61.2995 65.6064 53.7937 58.3386 48.9062 50.8978C44.0187 43.4569 41.9241 35.67 43.8442 30.1327C45.7643 26.6718 48.208 24.5953 50.8263 23.384C53.4446 22.1727 56.412 21.8266 59.554 21.9997C62.5214 22.1727 65.6634 23.0379 68.8053 24.2492C72.2964 25.6335 75.6129 27.537 78.9294 29.6135C82.0714 31.69 84.8643 34.2857 87.308 36.8813C89.9263 39.823 92.021 42.9378 93.5919 45.8795C95.1629 48.9943 96.0357 52.1091 96.0357 54.7047C96.0357 56.9542 95.3375 58.8577 93.5919 60.4151C92.1955 61.2803 90.1009 61.4533 87.6571 61.1073C84.8643 60.5881 81.7223 59.2038 78.5803 57.4734C75.4384 55.5699 72.6455 53.3203 70.3763 50.7247C68.1071 48.3021 66.5361 45.7065 65.6634 43.2839C63.7433 36.8813 67.0598 34.6318 69.8527 33.9396C71.2491 33.5935 72.471 33.4205 72.9946 33.4205H73.1692L76.1366 33.0744L73.5183 31.8631C73.3437 31.8631 71.4236 31.517 69.329 31.517C67.758 31.69 66.0125 31.8631 64.4415 32.5552C62.696 33.2474 61.2995 34.4587 60.2522 36.3622C59.554 37.7465 59.2049 39.4769 59.3794 41.5535C59.7285 45.1873 61.6486 49.1673 64.616 52.8012C67.758 56.6081 71.7727 60.069 76.4857 62.6647C81.0241 65.2603 85.9116 66.4716 90.2754 66.8177C94.8138 66.9907 98.654 65.9524 100.923 63.7029C101.272 63.3568 101.621 62.8377 101.971 62.4916C104.763 58.5116 104.414 53.3204 101.971 47.956C99.5268 42.7648 95.3375 37.2274 90.1009 32.3822C87.308 29.7866 84.5152 27.364 81.3732 25.2875C78.7549 23.384 75.962 21.8266 73.1692 20.2692C66.8853 16.9814 60.2522 14.9049 54.1428 15.078C48.0335 15.078 42.4477 17.3275 38.433 22.8649C37.9094 23.7301 37.2111 24.5953 36.6875 25.6335C33.0219 32.7283 34.4183 41.7265 39.3058 50.7247C44.5424 60.242 53.6192 69.7594 64.4415 76.8541C77.1839 85.1602 91.4973 89.3132 100.574 91.0436C102.494 91.5627 107.556 92.428 109.825 92.428ZM109.825 45.7065V5.73366H63.7433H60.7759C69.329 7.81017 77.533 11.7901 84.6897 16.9814C94.6393 24.2492 104.065 34.4587 109.476 44.8413C109.651 45.0143 109.651 45.3604 109.825 45.7065Z" fill="#00BE6E"/>
</svg>
