<?xml version="1.0" encoding="UTF-8" standalone="no"?> <!-- Generator: Adobe Illustrator 21.0.2, SVG Export Plug-In . SVG Version: 6.00 Build 0) --> <svg xmlns:dc="http://purl.org/dc/elements/1.1/" xmlns:cc="http://creativecommons.org/ns#" xmlns:rdf="http://www.w3.org/1999/02/22-rdf-syntax-ns#" xmlns:svg="http://www.w3.org/2000/svg" xmlns="http://www.w3.org/2000/svg" xmlns:sodipodi="http://sodipodi.sourceforge.net/DTD/sodipodi-0.dtd" xmlns:inkscape="http://www.inkscape.org/namespaces/inkscape" id="Layer_1" x="0px" y="0px" viewBox="0 0 191.19999 66.550483" xml:space="preserve" sodipodi:docname="_logofixed.svg" width="191.2" height="66.550484" inkscape:version="0.92.4 (5da689c313, 2019-01-14)"><metadata id="metadata244"></metadata><defs id="defs242"></defs> <style type="text/css" id="style189"> .st0{fill:#E86224;} .st1{font-family:'Montserrat-SemiBold';} .st2{font-size:12.1879px;} </style> <path class="st0" d="m 140.30077,11.832617 c -0.87606,0.375638 -2.12847,0.626064 -3.88144,0.876484 -1.0018,0.12521 -1.69012,0.313043 -2.06609,0.438246 -0.43838,0.18782 -0.68841,0.43825 -0.93886,0.751275 -0.25069,0.313037 -0.31295,0.68867 -0.31295,1.126919 0,0.626064 0.25066,1.126928 0.68847,1.565158 0.50074,0.438247 1.18936,0.626068 2.12848,0.626068 0.9393,0 1.69057,-0.187821 2.44188,-0.626068 0.68877,-0.375637 1.25205,-0.939094 1.56504,-1.627774 0.25055,-0.500844 0.37547,-1.314735 0.37547,-2.379036 z m 0.18832,5.258939 c -0.87678,0.751273 -1.75286,1.252129 -2.50472,1.565156 -0.8136,0.313036 -1.69006,0.43826 -2.62922,0.43826 -1.56525,0 -2.69194,-0.37565 -3.50594,-1.126937 -0.81403,-0.751268 -1.25217,-1.690358 -1.25217,-2.879902 0,-0.688655 0.1248,-1.314719 0.43814,-1.878173 0.31309,-0.563477 0.68877,-1.001705 1.25204,-1.377343 0.50088,-0.31303 1.06487,-0.626072 1.69067,-0.751282 0.50089,-0.125219 1.18941,-0.250423 2.12796,-0.375644 1.87852,-0.250421 3.31886,-0.500852 4.19492,-0.813877 0,-0.313033 0,-0.50085 0,-0.626062 0,-0.939087 -0.25023,-1.627766 -0.68846,-2.066014 -0.62594,-0.563458 -1.5026,-0.813879 -2.69208,-0.813879 -1.1269,0 -1.94097,0.187817 -2.44145,0.563455 -0.50089,0.37564 -0.9392,1.064306 -1.1897,2.066005 L 130.973,8.702303 c 0.18738,-1.001718 0.56317,-1.815598 1.06402,-2.379058 0.50069,-0.626063 1.18927,-1.064311 2.06599,-1.377343 0.93911,-0.313028 1.94046,-0.500852 3.19304,-0.500852 1.18889,0 2.12866,0.125213 2.8798,0.438246 0.751,0.313042 1.31457,0.626068 1.62776,1.064314 0.37569,0.438249 0.62594,0.939095 0.75105,1.627765 0.0633,0.375638 0.12561,1.126928 0.12561,2.191226 v 3.130316 c 0,2.191216 0.0633,3.56858 0.1249,4.194639 0.1255,0.563448 0.31299,1.126908 0.62596,1.69036 h -2.44184 c -0.25006,-0.438231 -0.43771,-1.001708 -0.5002,-1.69036" id="path191" inkscape:connector-curvature="0" style="fill:#e86224;stroke-width:0.62606245"></path> <path class="st0" d="M 145.81071,18.844545 V 4.883296 h 2.12839 v 2.128617 c 0.56334,-1.001693 1.06459,-1.627762 1.50218,-1.940796 0.43849,-0.313028 0.93939,-0.500854 1.50265,-0.500854 0.81395,0 1.62797,0.25042 2.44169,0.751285 l -0.81372,2.191214 c -0.56331,-0.375637 -1.12705,-0.500849 -1.75286,-0.500849 -0.50104,0 -1.00185,0.187825 -1.37776,0.500849 -0.43759,0.31304 -0.68888,0.751277 -0.87626,1.314759 -0.24996,0.813869 -0.37533,1.752979 -0.37533,2.754674 v 7.324943 h -2.37898 z" id="path193" inkscape:connector-curvature="0" style="fill:#e86224;stroke-width:0.62606245"></path> <path class="st0" d="m 95.41224,14.649904 2.316504,-0.375636 c 0.124984,0.939086 0.500251,1.69037 1.126737,2.191229 0.62625,0.500848 1.439809,0.75127 2.504389,0.75127 1.06409,0 1.8787,-0.250422 2.44112,-0.688659 0.50133,-0.438265 0.81422,-0.939112 0.81422,-1.565183 0,-0.563447 -0.25029,-0.93908 -0.68832,-1.252107 -0.3133,-0.187832 -1.1274,-0.500858 -2.44204,-0.813901 -1.752637,-0.438236 -2.942477,-0.813876 -3.631122,-1.126913 -0.688696,-0.313031 -1.189594,-0.751263 -1.502297,-1.314734 -0.313376,-0.563456 -0.500944,-1.189518 -0.500944,-1.878178 0,-0.626079 0.124973,-1.189544 0.43837,-1.752989 0.313011,-0.500858 0.688879,-1.001709 1.189632,-1.314739 0.375239,-0.25043 0.876482,-0.500858 1.502136,-0.688681 0.625885,-0.187809 1.314665,-0.313023 2.066215,-0.313023 1.06373,0 2.0657,0.187816 2.88005,0.500846 0.81401,0.313042 1.43964,0.751288 1.81568,1.252146 0.3753,0.563451 0.68904,1.25211 0.81377,2.128608 l -2.3166,0.313043 c -0.12531,-0.688683 -0.43875,-1.252144 -0.93905,-1.69039 -0.5012,-0.375633 -1.19012,-0.626054 -2.12855,-0.626054 -1.06461,0 -1.878288,0.187817 -2.316659,0.563455 -0.437924,0.37564 -0.688642,0.751271 -0.688642,1.252127 0,0.313023 0.125039,0.563456 0.31303,0.813878 0.188203,0.250433 0.500756,0.438251 0.877081,0.626071 0.24956,0.06269 0.93834,0.313017 2.06515,0.626062 1.69044,0.438239 2.81764,0.813883 3.50615,1.126929 0.62614,0.250415 1.18962,0.68866 1.56548,1.252102 0.37553,0.563477 0.56328,1.189542 0.56328,2.003421 0,0.813888 -0.25038,1.502565 -0.68862,2.253828 -0.43833,0.688675 -1.12724,1.252136 -2.00347,1.627761 -0.87666,0.375645 -1.87816,0.563479 -2.94282,0.563479 -1.81559,0 -3.193095,-0.37565 -4.131485,-1.126937 -1.001758,-0.688663 -1.62798,-1.815566 -1.878375,-3.318131" id="path195" inkscape:connector-curvature="0" style="fill:#e86224;stroke-width:0.62606245"></path> <path class="st0" d="M 108.99772,18.844545 V 4.883296 h 2.12916 v 1.940807 c 0.43742,-0.688662 1.00141,-1.252132 1.75258,-1.627765 0.75148,-0.438249 1.56492,-0.626075 2.50404,-0.626075 1.00181,0 1.87793,0.187826 2.56652,0.626075 0.62652,0.438248 1.12737,1.001709 1.37776,1.815575 1.12662,-1.627762 2.56689,-2.44165 4.31964,-2.44165 1.3772,0 2.44185,0.375639 3.19298,1.126919 0.75153,0.751287 1.12712,1.940804 1.12712,3.505963 v 9.578771 h -2.37891 v -8.764889 c 0,-0.939097 -0.0633,-1.627767 -0.25038,-2.066014 -0.12543,-0.438251 -0.43839,-0.751275 -0.81428,-1.001699 -0.37548,-0.250424 -0.87653,-0.375638 -1.43932,-0.375638 -1.00182,0 -1.8159,0.313029 -2.4421,1.001699 -0.62587,0.626066 -1.00156,1.690377 -1.00156,3.130316 v 8.076225 h -2.37954 V 9.766601 c 0,-1.064298 -0.18736,-1.815588 -0.56238,-2.379053 -0.37629,-0.500843 -1.0022,-0.813872 -1.87878,-0.813872 -0.68866,0 -1.31426,0.187813 -1.81561,0.500852 -0.56353,0.375631 -1.00187,0.876485 -1.25232,1.565163 -0.25022,0.688661 -0.37542,1.627761 -0.37542,2.942504 v 7.26235 z" id="path197" inkscape:connector-curvature="0" style="fill:#e86224;stroke-width:0.62606245"></path> <path class="st0" d="m 161.21139,16.715921 0.31282,2.065995 c -0.68852,0.125222 -1.25148,0.187832 -1.75282,0.187832 -0.87625,0 -1.50248,-0.125203 -2.00258,-0.375631 -0.50145,-0.250432 -0.8146,-0.626082 -1.00212,-1.064329 -0.18832,-0.438232 -0.31341,-1.377319 -0.31341,-2.817279 V 6.69889 h -1.7525 V 4.883296 h 1.7525 V 1.439948 L 158.83248,0 v 4.883296 h 2.37891 V 6.69889 h -2.37891 v 8.138822 c 0,0.688678 0.0633,1.126926 0.12525,1.314757 0.0633,0.187802 0.18772,0.313028 0.37574,0.43823 0.18778,0.125222 0.43792,0.187823 0.81376,0.187823 0.31299,0 0.62592,0 1.06416,-0.06269" id="path199" inkscape:connector-curvature="0" style="fill:#e86224;stroke-width:0.62606245"></path> <path d="m 97.979303,33.05618 c 0,1.815597 0.375668,3.192942 1.126853,4.069425 0.750807,0.876493 1.627584,1.314726 2.691844,1.314726 1.06446,0 1.94075,-0.438233 2.6917,-1.252104 0.75145,-0.876509 1.12731,-2.191241 1.12731,-3.944219 0,-1.940792 -0.37586,-3.380748 -1.12731,-4.257235 -0.75095,-0.876491 -1.69021,-1.37734 -2.7544,-1.37734 -1.06394,0 -1.940577,0.438229 -2.691729,1.314733 -0.6886,0.876491 -1.064268,2.253827 -1.064268,4.132014 m 7.575087,7.074533 v -1.752977 c -0.87648,1.377352 -2.19091,2.128617 -3.94392,2.128617 -1.12689,0 -2.191365,-0.31303 -3.130601,-0.939103 -0.939184,-0.626043 -1.690231,-1.502557 -2.191012,-2.62945 -0.501111,-1.12693 -0.813705,-2.379048 -0.813705,-3.819005 0,-1.439945 0.249671,-2.692078 0.688893,-3.818994 0.500089,-1.126919 1.188954,-2.003402 2.127833,-2.629455 0.939011,-0.626078 2.003412,-0.939106 3.130102,-0.939106 0.87713,0 1.62797,0.187817 2.25442,0.563456 0.68852,0.37565 1.18926,0.813879 1.62713,1.377339 v -7.07452 h 2.37903 v 19.533198 z" id="path201" inkscape:connector-curvature="0" style="stroke-width:0.62606245"></path> <path d="m 112.62879,31.67885 h 7.88863 c -0.12549,-1.189533 -0.43816,-2.066009 -0.87645,-2.692077 -0.75114,-0.939111 -1.75302,-1.37734 -2.94192,-1.37734 -1.12808,0 -2.00407,0.375636 -2.75519,1.126912 -0.81394,0.75129 -1.25245,1.752972 -1.31507,2.942505 m 7.88863,3.881595 2.50422,0.313018 c -0.37611,1.439969 -1.12697,2.566868 -2.19132,3.380763 -1.06447,0.81388 -2.37884,1.18952 -4.06915,1.18952 -2.06619,0 -3.69422,-0.626066 -4.94581,-1.940802 -1.1899,-1.252116 -1.81577,-3.067707 -1.81577,-5.384149 0,-2.379056 0.62587,-4.257225 1.81577,-5.571969 1.25159,-1.314731 2.81702,-1.94081 4.7576,-1.94081 1.87851,0 3.4437,0.626079 4.63325,1.94081 1.18954,1.314744 1.81543,3.130317 1.81543,5.446756 0,0.125213 0,0.375633 0,0.626062 h -10.58051 c 0.0633,1.565167 0.50093,2.754684 1.31459,3.568583 0.81406,0.813871 1.75287,1.252104 2.94333,1.252104 0.87578,0 1.62693,-0.250422 2.25332,-0.688658 0.6886,-0.438241 1.18918,-1.126925 1.56505,-2.191228" id="path203" inkscape:connector-curvature="0" style="stroke-width:0.62606245"></path> <rect x="125.46365" y="20.597507" width="2.3790407" height="19.533209" id="rect205" style="stroke-width:0.62606245"></rect> <path d="m 137.04531,38.002098 0.31341,2.128615 c -0.68888,0.125214 -1.25287,0.187824 -1.81547,0.187824 -0.87672,0 -1.56536,-0.125214 -2.00367,-0.438238 -0.50075,-0.250428 -0.81408,-0.626073 -1.00187,-1.064324 -0.18745,-0.438239 -0.31322,-1.377334 -0.31322,-2.817285 v -8.138835 h -1.7527 v -1.878178 h 1.7527 v -3.50597 l 2.37887,-1.439939 v 4.945909 h 2.44195 v 1.878178 h -2.44195 V 36.1239 c 0,0.688677 0.0633,1.126928 0.12585,1.314741 0.0633,0.187818 0.1876,0.375633 0.43809,0.438244 0.18785,0.125213 0.43839,0.187808 0.81366,0.187808 0.25081,0 0.62628,0 1.06435,-0.06271" id="path207" inkscape:connector-curvature="0" style="stroke-width:0.62606245"></path> <path d="m 148.7524,33.05618 c -0.87601,0.375638 -2.19063,0.68868 -3.94381,0.876494 -1.00155,0.125218 -1.69043,0.313049 -2.06595,0.500851 -0.43818,0.187838 -0.75123,0.438252 -0.93903,0.751286 -0.25031,0.313023 -0.31319,0.751273 -0.31319,1.126907 0,0.626082 0.25071,1.189534 0.75148,1.627771 0.50074,0.438247 1.18923,0.626053 2.12855,0.626053 0.93913,0 1.75308,-0.187806 2.44196,-0.626053 0.75108,-0.375638 1.25136,-0.939096 1.56474,-1.627771 0.25055,-0.563461 0.37525,-1.314732 0.37525,-2.379044 z m 0.25129,5.321556 c -0.87684,0.751286 -1.75344,1.31474 -2.56732,1.627768 -0.81378,0.313033 -1.69013,0.438242 -2.62933,0.438242 -1.56514,0 -2.75473,-0.37564 -3.56881,-1.126922 -0.81352,-0.751282 -1.25186,-1.752973 -1.25186,-2.879884 0,-0.688683 0.18745,-1.31474 0.50088,-1.878188 0.31285,-0.563458 0.75098,-1.001706 1.25198,-1.377365 0.50123,-0.375623 1.06412,-0.626052 1.7527,-0.813863 0.43874,-0.125229 1.18991,-0.250423 2.12877,-0.375647 1.94107,-0.250432 3.38075,-0.500858 4.25731,-0.813884 0,-0.313028 0,-0.563464 0,-0.626058 0,-1.001707 -0.25031,-1.690365 -0.68832,-2.06602 -0.6262,-0.563461 -1.50292,-0.81388 -2.75493,-0.81388 -1.12643,0 -1.94103,0.18782 -2.50409,0.626059 -0.56399,0.37566 -0.93926,1.126932 -1.18954,2.128623 l -2.31642,-0.313034 c 0.1876,-1.001686 0.56288,-1.815589 1.06438,-2.441648 0.5002,-0.626059 1.18875,-1.064317 2.12861,-1.43994 0.93882,-0.313038 2.003,-0.500855 3.19301,-0.500855 1.18919,0 2.19074,0.125206 2.94169,0.43825 0.75155,0.250429 1.31516,0.626068 1.69089,1.064307 0.37575,0.438238 0.62612,1.001691 0.75102,1.627773 0.0633,0.438231 0.12545,1.126902 0.12545,2.191215 v 3.192938 c 0,2.253828 0.0633,3.631162 0.12509,4.257221 0.12525,0.563458 0.31303,1.189532 0.62594,1.690379 h -2.50446 c -0.37528,-0.563452 -0.50032,-1.126921 -0.56264,-1.815587" id="path209" inkscape:connector-curvature="0" style="stroke-width:0.62606245"></path> <path d="m 95.286894,56.596183 2.379546,-0.37559 c 0.124558,0.93915 0.500399,1.69034 1.126428,2.19125 0.626237,0.50079 1.439962,0.75114 2.567002,0.75114 1.12689,0 1.8787,-0.25035 2.44112,-0.68857 0.56393,-0.43828 0.81422,-0.93905 0.81422,-1.56513 0,-0.56351 -0.25029,-0.9392 -0.68832,-1.2522 -0.3133,-0.18781 -1.1274,-0.50083 -2.44204,-0.81387 -1.752637,-0.43823 -2.942477,-0.81388 -3.631122,-1.12686 -0.688696,-0.3131 -1.189594,-0.75129 -1.564871,-1.31484 -0.375703,-0.56336 -0.501111,-1.18944 -0.501111,-1.87811 0,-0.6261 0.125408,-1.18954 0.438447,-1.75298 0.313105,-0.50087 0.68832,-1.00172 1.188949,-1.31475 0.375856,-0.25042 0.876736,-0.50085 1.502507,-0.6887 0.626714,-0.18777 1.315181,-0.31303 2.066231,-0.31303 1.12669,0 2.06607,0.18785 2.94301,0.50088 0.81401,0.31306 1.43964,0.75126 1.87797,1.31473 0.37563,0.56343 0.68887,1.25207 0.81396,2.19126 l -2.3165,0.31304 c -0.12538,-0.75133 -0.43817,-1.31474 -0.93884,-1.69038 -0.50102,-0.43827 -1.25291,-0.62612 -2.12886,-0.62612 -1.12709,0 -1.87767,0.18785 -2.379139,0.56348 -0.50051,0.37565 -0.688642,0.81388 -0.688642,1.25213 0,0.313 0.125039,0.56345 0.31303,0.81388 0.188203,0.25044 0.500756,0.43822 0.939236,0.62598 0.250276,0.063 0.938815,0.31312 2.128855,0.62616 1.69061,0.43818 2.87956,0.81386 3.50574,1.12689 0.68887,0.313 1.18925,0.6887 1.56512,1.25212 0.37517,0.5635 0.56323,1.25209 0.56323,2.06602 0,0.81398 -0.25044,1.5652 -0.68832,2.25393 -0.43843,0.68864 -1.1272,1.25198 -2.00403,1.62766 -0.87611,0.37571 -1.87771,0.56346 -2.94174,0.56346 -1.815747,0 -3.256082,-0.37567 -4.194961,-1.12685 -1.188954,-0.8766 -1.815628,-2.00358 -2.066105,-3.50603" id="path211" inkscape:connector-curvature="0" style="stroke-width:0.62606245"></path> <path d="m 109.37353,66.237463 -1.06443,-2.25367 c 0.50083,0.12522 1.00181,0.1877 1.3775,0.1877 0.56338,0 0.93886,-0.0633 1.25215,-0.25025 0.31265,-0.1879 0.56337,-0.43844 0.81359,-0.75129 0.12556,-0.25038 0.37595,-0.81403 0.75159,-1.75302 0.0633,-0.12537 0.12486,-0.31307 0.18748,-0.56354 l -5.32143,-14.14902 h 2.56693 l 2.94255,8.13884 c 0.37552,1.06435 0.75148,2.12857 1.00157,3.25542 0.25058,-1.12685 0.62617,-2.19107 1.00162,-3.1929 l 3.0053,-8.20136 h 2.3791 l -5.3844,14.33694 c -0.56284,1.56515 -1.00162,2.62957 -1.31452,3.19294 -0.43821,0.81375 -0.62607,1.37726 -1.19006,1.75282 -0.56271,0.37578 -0.68846,0.56341 -1.43932,0.56341 -0.43849,-0.0633 -1.00184,-0.12506 -1.56522,-0.31302" id="path213" inkscape:connector-curvature="0" style="stroke-width:0.62606245"></path> <path d="m 121.26873,56.596183 2.37869,-0.37559 c 0.12603,0.93915 0.50105,1.69034 1.12724,2.19125 0.62592,0.50079 1.43988,0.75114 2.56685,0.75114 1.12727,0 1.8783,-0.25035 2.44157,-0.68857 0.56364,-0.43828 0.81396,-0.93905 0.81396,-1.56513 0,-0.56351 -0.25032,-0.9392 -0.68863,-1.2522 -0.31317,-0.18781 -1.12684,-0.50083 -2.44188,-0.81387 -1.75303,-0.43823 -2.94258,-0.81388 -3.63096,-1.12686 -0.68865,-0.3131 -1.19004,-0.75129 -1.56532,-1.31484 -0.37558,-0.56336 -0.50067,-1.18944 -0.50067,-1.87811 0,-0.6261 0.12509,-1.18954 0.43814,-1.75298 0.31292,-0.50087 0.68851,-1.00172 1.18966,-1.31475 0.37607,-0.25042 0.87629,-0.50085 1.50246,-0.6887 0.62605,-0.18777 1.3147,-0.31303 2.06665,-0.31303 1.12633,0 2.06496,0.18785 2.94192,0.50088 0.81343,0.31306 1.43986,0.75126 1.87789,1.31473 0.37581,0.56343 0.68888,1.25207 0.81399,2.19126 l -2.31617,0.31304 c -0.12489,-0.75133 -0.43833,-1.31474 -0.93927,-1.69038 -0.50087,-0.43827 -1.25203,-0.62612 -2.19115,-0.62612 -1.06443,0 -1.87791,0.18785 -2.37904,0.56348 -0.43876,0.37565 -0.68888,0.81388 -0.68888,1.25213 0,0.313 0.0633,0.56345 0.31329,0.81388 0.18818,0.25044 0.50077,0.43822 0.93916,0.62598 0.25038,0.063 0.93926,0.31312 2.1283,0.62616 1.69074,0.43818 2.88019,0.81386 3.50647,1.12689 0.68876,0.313 1.18911,0.6887 1.56471,1.25212 0.37528,0.5635 0.56372,1.25209 0.56372,2.06602 0,0.81398 -0.25073,1.5652 -0.68862,2.25393 -0.43837,0.68864 -1.12695,1.25198 -2.0038,1.62766 -0.87637,0.37571 -1.87792,0.56346 -2.94248,0.56346 -1.81559,0 -3.25521,-0.37567 -4.19441,-1.12685 -1.12677,-0.8766 -1.75328,-2.00358 -2.00339,-3.50603" id="path215" inkscape:connector-curvature="0" style="stroke-width:0.62606245"></path> <path d="m 141.05231,58.662203 0.31293,2.12871 c -0.68877,0.12518 -1.25201,0.18776 -1.81549,0.18776 -0.8766,0 -1.56538,-0.12528 -2.00356,-0.43824 -0.50088,-0.25051 -0.81375,-0.6261 -1.00124,-1.06444 -0.18824,-0.43805 -0.31318,-1.37736 -0.31318,-2.81721 v -8.13885 h -1.75299 v -1.87814 h 1.75299 v -3.44338 l 2.3788,-1.439989 v 4.945949 h 2.37872 v 1.87819 h -2.37872 v 8.26413 c 0,0.68867 0.0633,1.12681 0.12566,1.31469 0.0633,0.18783 0.18738,0.37561 0.37519,0.43824 0.18747,0.12518 0.43833,0.18768 0.81388,0.18768 0.31293,-0.0628 0.68888,-0.0628 1.12701,-0.1251" id="path217" inkscape:connector-curvature="0" style="stroke-width:0.62606245"></path> <path d="m 145.18427,52.401513 h 7.88836 c -0.1249,-1.18944 -0.43849,-2.06601 -0.87599,-2.69201 -0.75179,-0.93908 -1.75335,-1.37736 -2.94283,-1.37736 -1.06412,0 -2.00356,0.37566 -2.75458,1.12697 -0.81426,0.68867 -1.25253,1.69036 -1.31496,2.9424 m 7.82583,3.81908 2.44163,0.31306 c -0.37568,1.43985 -1.12691,2.56684 -2.19131,3.38068 -1.06378,0.81399 -2.3788,1.18953 -4.00661,1.18953 -2.06612,0 -3.69427,-0.62602 -4.88336,-1.94088 -1.19,-1.25205 -1.81579,-3.06762 -1.81579,-5.3215 0,-2.37904 0.62579,-4.19458 1.81579,-5.50934 1.25214,-1.31473 2.81724,-1.94081 4.75791,-1.94081 1.87831,0 3.44354,0.62608 4.63281,1.94081 1.18962,1.31476 1.81587,3.06771 1.81587,5.44673 0,0.12524 0,0.3757 0,0.62611 h -10.51817 c 0.0633,1.5651 0.50067,2.75476 1.31444,3.56852 0.81438,0.8138 1.75354,1.25211 2.94316,1.25211 0.87629,0 1.62746,-0.25028 2.25363,-0.68862 0.62654,-0.56349 1.12689,-1.31473 1.44,-2.3164" id="path219" inkscape:connector-curvature="0" style="stroke-width:0.62606245"></path> <path d="m 158.20656,60.790913 v -14.08654 h 1.87807 v 2.00343 c 0.43788,-0.68866 1.00187,-1.25213 1.75293,-1.69039 0.75112,-0.43821 1.56506,-0.62608 2.5044,-0.62608 1.06372,0 1.87789,0.18787 2.56627,0.62608 0.68888,0.43826 1.12802,1.06433 1.44029,1.81557 1.12701,-1.62773 2.56703,-2.44165 4.31987,-2.44165 1.37742,0 2.44226,0.37564 3.25614,1.18958 0.751,0.75123 1.12627,1.94071 1.12627,3.56856 v 9.70392 h -2.37909 v -8.95264 c 0,-0.93913 -0.0633,-1.62779 -0.24978,-2.06604 -0.18846,-0.43823 -0.4391,-0.75124 -0.81438,-1.00173 -0.43849,-0.25042 -0.87599,-0.37563 -1.43993,-0.37563 -1.00161,0 -1.81555,0.31307 -2.50434,1.00176 -0.62592,0.68867 -1.00151,1.69036 -1.00151,3.19293 v 8.20135 h -2.37919 v -9.26571 c 0,-1.06428 -0.18812,-1.87818 -0.56339,-2.37907 -0.37568,-0.56341 -1.002,-0.81384 -1.94083,-0.81384 -0.68879,0 -1.31426,0.18779 -1.8782,0.50081 -0.56331,0.37565 -1.00161,0.87656 -1.25205,1.56523 -0.25049,0.68866 -0.37538,1.69033 -0.37538,2.94244 v 7.32507 h -2.06617 z" id="path221" inkscape:connector-curvature="0" style="stroke-width:0.62606245"></path> <path d="m 179.05413,56.596183 2.37934,-0.37559 c 0.12538,0.93915 0.50087,1.69034 1.12679,2.19125 0.62615,0.50079 1.44025,0.75114 2.56694,0.75114 1.12691,0 1.94067,-0.25035 2.44183,-0.68857 0.563,-0.43828 1.06422,-0.93905 1.06422,-1.56513 0,-0.56351 -0.50122,-0.9392 -0.93934,-1.2522 -0.31305,-0.18781 -1.12671,-0.50083 -2.44183,-0.81387 -1.75277,-0.43823 -2.94178,-0.81388 -3.63066,-1.12686 -0.68888,-0.3131 -1.18981,-0.75129 -1.56529,-1.31484 -0.3758,-0.56336 -0.50135,-1.18944 -0.50135,-1.87811 0,-0.6261 0.12555,-1.18954 0.43859,-1.75298 0.3129,-0.50087 0.68876,-1.00172 1.18962,-1.31475 0.37586,-0.25042 0.87611,-0.50085 1.50258,-0.6887 0.62617,-0.18777 1.31494,-0.31303 2.06611,-0.31303 1.12675,0 2.06578,0.18785 2.94223,0.50088 0.81416,0.31306 1.69098,0.75126 2.12833,1.31473 0.37596,0.56343 0.68888,1.25207 0.81385,2.19126 l -2.56635,0.31304 c -0.1252,-0.75133 -0.43813,-1.31474 -0.93921,-1.69038 -0.50115,-0.43827 -1.2521,-0.62612 -2.1285,-0.62612 -1.12702,0 -1.87843,0.18785 -2.37897,0.56348 -0.43801,0.37565 -0.68872,0.81388 -0.68872,1.25213 0,0.313 0.0633,0.56345 0.31283,0.81388 0.18791,0.25044 0.50048,0.43822 0.87643,0.62598 0.25062,0.063 0.9392,0.31312 2.12848,0.62616 1.69091,0.43818 3.13043,0.81386 3.81921,1.12689 0.68877,0.313 1.18952,0.6887 1.5648,1.25212 0.37607,0.5635 0.56391,1.25209 0.56391,2.06602 0,0.81398 -0.25043,1.5652 -0.68888,2.25393 -0.43766,0.68864 -1.12623,1.25198 -2.00305,1.62766 -0.87646,0.37571 -2.12865,0.56346 -3.25599,0.56346 -1.81556,0 -3.25539,-0.37567 -4.19465,-1.12685 -1.12669,-0.8766 -1.75261,-2.00358 -2.0033,-3.50603" id="path223" inkscape:connector-curvature="0" style="stroke-width:0.62606245"></path> <path d="m 59.288265,32.555335 c 0,-15.58899 -12.64647,-28.235487 -28.235487,-28.235487 v 19.721018 c 4.69548,0 8.577063,3.881588 8.577063,8.577076 0,4.69549 -3.881583,8.577085 -8.577063,8.577085 v 19.721066 c 15.589017,-0.12518 28.235487,-12.77175 28.235487,-28.360758" id="path225" inkscape:connector-curvature="0" style="stroke-width:0.62606245"></path> <path class="st0" d="m 28.298086,32.492733 v -0.125209 h -8.514439 c 0.125179,-4.570284 3.881584,-8.201451 8.451826,-8.326658 V 4.319848 C 12.771693,4.319848 0.1252128,16.903732 0,32.367524 v 0 0.939085 H 8.4518781 C 8.0136346,37.563851 4.3824485,40.944594 0,40.944594 v 19.783729 c 15.526409,0 28.235473,-12.70918 28.298086,-28.23559 z" id="path227" inkscape:connector-curvature="0" style="fill:#e86224;stroke-width:0.62606245"></path> <path d="m 90.216038,32.492733 v -0.125209 h -8.577289 c 0.125362,-4.570284 3.881588,-8.201451 8.514426,-8.326658 V 4.319848 c -15.526172,0 -28.172814,12.583884 -28.298017,28.047676 v 0 0.939085 h 8.514557 c -0.438315,4.257242 -4.069594,7.637985 -8.451974,7.637985 v 19.783729 c 15.526483,0 28.235434,-12.70918 28.298297,-28.23559 z" id="path229" inkscape:connector-curvature="0" style="stroke-width:0.62606245"></path> </svg> 