<svg xmlns="http://www.w3.org/2000/svg" viewBox="0 0 317.28 56.8"><defs><mask id="mask" x="16.41" y="10.16" width="28.83" height="13.59" maskUnits="userSpaceOnUse"><path class="cls-7" d="M28.02 17.52c9.52-.41 14.36-.11 16.37 2.61-.21-.35-.44-.71-.68-1.03-.51-.72-1.07-1.38-1.68-2-.61-.62-1.26-1.19-1.93-1.69l-.04-.03c-2.22-1.51-6.25-1.51-12.99-.97-2.68.21-3.8.28-4.4.23-.47-.04-.75-.17-.4-.49l.47-.27v-.07c-5.5 2.78-3.91 4.13 5.26 3.74" id="mask0_2660_9413"/></mask><mask id="mask-1" x="18.62" y="38.29" width="21.51" height="9.62" maskUnits="userSpaceOnUse"><path class="cls-7" d="M20.61 42.16c.65.42 1.54.96 2.22 1.33.55.27 1.3.56 1.86.79 2.69.92 7.48.14 11.72-.63.84-.16 1.31-.23 1.43-.2 1.74-.93 1.59-1.31 1.17-1.45-.72-.25-2.05-.16-4.98.1-8.28.73-12.42.76-14.86-1.07.41.35.99.8 1.43 1.14" id="mask1_2660_9413"/></mask><mask id="mask-2" x="11.25" y="13.75" width="37.68" height="23.25" maskUnits="userSpaceOnUse"><path class="cls-7" d="M16.86 18.72c-1.52 2.33-2.05 3.68-2.3 4.33-1.43 4.23 4.74 4.98 14.29 4.8 12.2-.24 18.19.41 17.51 4.63.07-.34.14-.68.2-1 .14-.83.21-1.66.23-2.51 0-.85-.04-1.69-.17-2.55l-.03-.2c-.85-4.66-11.74-4.29-18.36-4.08-7.27.24-13.62.11-10.99-3.84l-.03-.03c-.13.16-.25.32-.37.45" id="mask2_2660_9413"/></mask><mask id="mask-3" x="12.06" y="24.88" width="36.41" height="20.66" maskUnits="userSpaceOnUse"><path class="cls-7" d="M13.63 29.32c.03.51.11 1.17.16 1.68.14.79.38 1.82.59 2.6.23.65.58 1.51.85 2.16 1.78 3.78 10.93 3.25 18.17 2.82 2.71-.16 5.04-.3 6.7 0 1.93.34 2.29 1.21 1.07 2.5l.04.03c.3-.27.59-.52.85-.76.51-.56 1.17-1.35 1.64-1.96l.2-.28c2.99-4.47-3.56-4.81-11.17-4.5-11.32.47-18.55-.08-19.1-4.29h.01z" id="mask3_2660_9413"/></mask><mask id="mask-4" x="3.53" y="5.9" width="33.89" height="34.69" maskUnits="userSpaceOnUse"><path class="cls-7" d="M22.84 13.74l-.07.03-.06.1.65-.3c.39-.14.34.13.32.18-.17.4-.68.96-2.5 2.86-3.96 4.19-7.07 7.65-7.51 10.57-.18 2.14.06 4.35.75 6.48-.66-3.6 2.95-8.13 8.49-14.57 3.67-4.26 4.53-6.32 2.93-6.32-.63 0-1.64.32-3.01.96" id="mask4_2660_9413"/></mask><mask id="mask-5" x="0" y="0" width="54.33" height="55.53" maskUnits="userSpaceOnUse"><path class="cls-7" d="M29.76 12.09v.08c2.81.35 2.12 2.93-2.12 8.2-7.86 9.75-12.66 15.7-9.95 19.12 1.44 1.66 3.17 3.01 5.09 3.96-2.67-1.71-2.38-5.01 6.86-16.65 5.14-6.46 9.71-12.85 4.85-14.18-.42-.11-1.82-.47-3.85-.55-.27 0-.56 0-.87.01" id="mask5_2660_9413"/></mask><mask id="mask-6" x="9.13" y="3.91" width="51.75" height="52.89" maskUnits="userSpaceOnUse"><path class="cls-7" d="M32.61 32.62c-4.64 5.76-9.18 12.01-3.81 12.57 1.57.14 3.17.03 4.74-.3v-.06c-2.19.3-2.68-.66-1.45-2.93.89-1.62 2.5-3.57 3.67-5.01 5.09-6.18 10.81-13.11 8.62-16.76-.21-.35-.44-.71-.68-1.03-.51-.72-1.07-1.38-1.66-2-.61-.62-1.26-1.19-1.93-1.69l-.04-.03c2.74 2.41.73 7.05-7.46 17.24" id="mask6_2660_9413"/></mask><mask id="mask-7" x="23.86" y="19.44" width="32.25" height="33.02" maskUnits="userSpaceOnUse"><path class="cls-7" d="M38.96 38.94c-2.31 2.69-5.8 6.74-1.35 4.61l.13-.08.03-.07c.07-.2.21-.34 1.34-1.48 2.64-2.65 6.6-6.63 7.27-9.45.07-.34.14-.68.2-1 .14-.83.21-1.66.23-2.51 0-.85-.04-1.69-.17-2.55l-.03-.2c.21 3.02-2.29 6.5-7.65 12.74" id="mask7_2660_9413"/></mask><radialGradient id="gard-5" cx="-759.22" cy="582.67" fx="-759.22" fy="582.67" r="1" gradientTransform="matrix(15.7417 20.35269 21.72114 -16.80012 -670.16 25266.21)" gradientUnits="userSpaceOnUse"><stop offset="0" stop-color="#bf216a"/><stop offset="1" stop-color="#292665"/></radialGradient><radialGradient id="gard-6" cx="-759.62" cy="582.54" fx="-759.62" fy="582.54" r="1" gradientTransform="rotate(52.28 -26374.021 12102.224) scale(26.03 -27.77)" gradientUnits="userSpaceOnUse"><stop offset="0" stop-color="#bf216a"/><stop offset="1" stop-color="#292665"/></radialGradient><radialGradient id="gard-7" cx="-759.6" cy="582.54" fx="-759.6" fy="582.54" r="1" gradientTransform="matrix(15.91912 20.58208 21.96635 -16.98977 -673.02 25550.43)" gradientUnits="userSpaceOnUse"><stop offset="0" stop-color="#bf216a"/><stop offset="1" stop-color="#292665"/></radialGradient><radialGradient id="gard-8" cx="-759.6" cy="582.54" fx="-759.6" fy="582.54" r="1" gradientTransform="rotate(52.28 -26361.807 12093.753) scale(26.02 -27.75)" gradientUnits="userSpaceOnUse"><stop offset="0" stop-color="#bf216a"/><stop offset="1" stop-color="#292665"/></radialGradient><linearGradient id="grad" x1="47.8" y1="42.48" x2="15.41" y2="46.88" gradientTransform="matrix(1 0 0 -1 0 61.75)" gradientUnits="userSpaceOnUse"><stop offset="0" stop-color="#ffd400"/><stop offset="1" stop-color="#f15a29"/></linearGradient><linearGradient id="gard-2" x1="43.23" y1="16.76" x2="10.6" y2="21.19" gradientTransform="matrix(1 0 0 -1 0 61.75)" gradientUnits="userSpaceOnUse"><stop offset="0" stop-color="#ffd400"/><stop offset="1" stop-color="#f15a29"/></linearGradient><linearGradient id="gard-3" x1="47.15" y1="34.05" x2="14.52" y2="38.48" gradientTransform="matrix(1 0 0 -1 0 61.75)" gradientUnits="userSpaceOnUse"><stop offset="0" stop-color="#ffd400"/><stop offset="1" stop-color="#f15a29"/></linearGradient><linearGradient id="gard-4" x1="45.4" y1="24.47" x2="12.77" y2="28.91" gradientTransform="matrix(1 0 0 -1 0 61.75)" gradientUnits="userSpaceOnUse"><stop offset="0" stop-color="#ffd400"/><stop offset="1" stop-color="#f15a29"/></linearGradient><style>.cls-7{fill:#fff}</style></defs><path class="cls-7" d="M47.52 28.75c0 9.59-7.77 17.37-17.37 17.37S12.8 38.35 12.8 28.75 20.57 11.4 30.15 11.4s17.37 7.77 17.37 17.35z"/><g mask="url(#mask)"><path d="M17.75 10.16l-1.34 9.86 27.49 3.74 1.34-9.86-27.49-3.74z" fill="url(#grad)"/></g><g mask="url(#mask-1)"><path d="M19.55 38.29l-.93 6.82 20.58 2.8.93-6.82-20.58-2.8z" fill="url(#gard-2)"/></g><g mask="url(#mask-2)"><path d="M13.76 13.75l-2.51 18.47L46.42 37l2.51-18.47-35.17-4.78z" fill="url(#gard-3)"/></g><g mask="url(#mask-3)"><path d="M14.23 24.88l-2.18 16.01 34.24 4.65 2.18-16.01-34.24-4.65z" fill="url(#gard-4)"/></g><g mask="url(#mask-4)"><path d="M3.53 20.8l15.31 19.79 18.58-14.91L22.1 5.9 3.53 20.8z" fill="url(#gard-5)"/></g><g mask="url(#mask-5)"><path d="M0 24.1l24.31 31.43 30.02-24.1L30.02 0 0 24.1z" fill="url(#gard-6)"/></g><g mask="url(#mask-6)"><path d="M9.13 26.85L32.3 56.8l28.58-22.94L37.72 3.91 9.13 26.85z" fill="url(#gard-7)"/></g><g mask="url(#mask-7)"><path d="M23.86 33.68l14.53 18.78 17.72-14.22-14.53-18.79-17.72 14.24z" fill="url(#gard-8)"/></g><path d="M104.51 20.42c-1.25-1.44-2.88-2.52-4.64-3.2-.81-.33-2.45-.79-3.52-.92-1.91-.23-6.25-.3-7.52-.31l-.38.02h-6.07v5.76h1.41c.67 0 1.22.52 1.22 1.17v13.89c0 .64-.55 1.17-1.22 1.17h-1.41v5.76H90.18c.73-.03 3.41.01 6.17-.33.29-.04 2.71-.59 3.52-.92 1.77-.68 3.4-1.78 4.64-3.21 1.16-1.3 1.99-2.9 2.49-4.57.47-1.58.66-3.23.65-4.88 0-1.65-.18-3.3-.65-4.88-.5-1.67-1.33-3.26-2.49-4.56zm-3.93 10.72c-.13 1.54-.63 3.12-1.6 4.34-.78.96-1.86 1.66-3.04 2.01-.12.04-.26.08-.38.12h-.06c-.6.15-1.22.21-1.84.24h-1.31c-.36-.07-.54-.41-.57-.75V22.65c.03-.34.21-.68.57-.74.19-.02.39-.02.58-.03.86 0 1.73.04 2.57.24h.06c.13.04.26.08.38.12 1.19.34 2.26 1.05 3.04 2 .97 1.21 1.46 2.79 1.6 4.33.04.42.06.85.06 1.29 0 .44-.03.86-.06 1.29zM77.9 37.97c-.53 0-1.17-.42-1.42-.92l-2.81-5.57c-.42-.73-.98-1.4-1.76-1.76.45-.3.83-.72 1.13-1.18l2.98-5.88c.25-.5.89-.89 1.42-.89h1.22v-5.76l-2.54-.02h-1.77c-.9.01-1.87.1-2.6.67-.62.48-.96 1.21-1.31 1.9-.22.44-.44.87-.66 1.3s-3.14 6.17-3.14 6.17c-.26.5-.89.92-1.42.92h-1.3v-9.16c-.12-1-1.01-1.78-2.08-1.78h-7.39v5.75h1.41c.67 0 1.22.52 1.22 1.16v13.86c0 .65-.55 1.17-1.22 1.17h-1.41v5.75h7.39c1.07 0 1.96-.78 2.08-1.78v-9.28h1.73c.53 0 1.17.41 1.43.92l1.77 3.64c.63 1.25 1.4 2.76 2.03 4.01.35.68.68 1.41 1.31 1.89.73.56 1.7.65 2.6.66 1.43 0 4.3-.04 4.3-.04v-5.75h-1.21zM124.22 36.05v.8c0 .65-.55 1.17-1.22 1.17h-5.28V18c0-1.1-.94-2-2.09-2h-7.4v5.77h1.41c.67 0 1.22.53 1.22 1.17v13.9c0 .64-.55 1.17-1.22 1.17h-1.41v5.77h19.92c1.15 0 2.08-.9 2.08-2v-5.71h-6.01zM158.35 4.87h1.11v50h-1.11zM198.45 35.16h.04-.04zm9.77-19.18h-.62c-.51 0-.99.28-1.24.72-2.62 4.57-5.25 9.14-7.87 13.71h-.01c-2.62-4.57-5.25-9.14-7.87-13.71-.25-.45-.73-.72-1.24-.72h-1.8v23.51h3.01V22.78c2.34 3.96 4.69 7.93 7.03 11.89.2.33.54.49.87.5.34 0 .67-.17.87-.49 2.34-3.97 4.69-7.94 7.03-11.9v16.71h3.03V15.98h-1.19zm24.89 27.77h-2.87v-7.32h2.66c.24-.59.58-1.52.92-2.69.2-.7.86-3.14 1.13-8.75.06-1.23.12-2.95.1-5h12.15v16.5h2.49v7.27h-2.86v-4.27h-13.7v4.27zm3.07-7.32h7.92V23.04h-6.13c-.1 2.49-.34 5.21-.79 8.11a67.93 67.93 0 01-1 5.27zm-8.41-12.93c.92 2.32.97 4.75.81 7.32h-11.69c-.3 3.71 1.8 6.11 4.68 6.18 1.96.05 3.72-.55 5.49-1.43l1.19 2.27c-1.06.69-4.01 2.38-7.79 1.89-.86-.11-2.21-.29-3.55-1.16-4.68-3.05-3.5-10.77-3.43-11.18.27-1.59.74-4.41 3.07-6.1 1.74-1.27 3.91-1.48 4.42-1.5.87-.04 1.75 0 2.6.15 2.08.36 3.45 1.65 4.21 3.56zm-2.32 4.01c0-.25-.05-3.48-2.39-4.68-1.49-.76-3.03-.26-3.16-.21-1.92.66-3.25 2.83-3.19 5.4h8.71c.01-.13.02-.3.02-.52zm73.23 10.35c.07.71.14 1.28.19 1.62h-2.47l-.3-3.06a7.393 7.393 0 01-3.69 2.98c-.97.34-1.79.38-2.17.38-.33 0-1.48.01-2.53-.47-2.02-.93-3.22-3.47-3.03-5.76.03-.39.19-1.81 1.21-3.12 1.7-2.18 4.6-2.58 7.12-2.92 1.05-.14 1.93-.18 2.54-.18.03-.19.39-2.69-1.29-4.06-1.1-.89-2.44-.8-3.34-.73-2.24.16-3.81 1.4-4.48 2.02-.16-.48-.57-1.78-.64-2.74-.01-.12-.02-.31.06-.52.18-.42.64-.64 1.08-.81 2-.77 4.07-1.04 6.21-.83.55.05.95.11 1.5.28.54.17 1.76.56 2.68 1.63.17.2.72.88 1.09 2.42.39 1.61.26 2.82.17 4.2-.05.73-.34 5.2.09 9.66zm-3.21-7.92c-1.27.17-2.39.25-3.46.5-.95.22-1.92.53-2.77.99-1.27.69-1.74 2.16-1.31 3.52.42 1.3 1.4 1.92 2.93 1.88 1.51-.04 2.67-.75 3.7-1.82 1.41-1.46.73-3.22.92-5.07zm11.13.88h7.5v8.67h3.18v-19.5h-3.17v8.04h-7.5v-8.04h-3.09v19.5h3.1v-8.67zm-26.58 3.39c-1.22-1.78-2.43-3.48-3.63-5.1.99-1.28 1.98-2.62 2.97-4.03 1.23-1.74 2.36-3.44 3.42-5.09h-3.49c-.95 1.55-1.98 3.15-3.1 4.77-.78 1.14-1.56 2.22-2.33 3.27h-1.9v-8.04h-3.1v19.5h3.08v-8.67h1.9c.93 1.3 1.87 2.67 2.81 4.12 1.01 1.55 1.95 3.07 2.82 4.55 1.33 0 2.65 0 3.98.01-1.07-1.72-2.22-3.49-3.45-5.29zm-14.27 3.54c-.33-.76-.66-1.51-1-2.27-1.01.37-1.92.78-2.87 1.04-3.03.85-5.28-.09-6.31-2.74-1.04-2.67-1-5.41-.06-8.12.65-1.88 2.12-2.79 4.02-3 1.72-.19 3.16.32 4.11 2.01.45-.59.81-1.07 1.17-1.55.91-1.23.7-2.05-.72-2.67-1.5-.65-3.08-.8-4.69-.69-3.31.22-5.7 1.77-6.96 4.88-1.11 2.71-1.06 5.55-.6 8.36.31 1.89.79 3.7 2.39 5.06 1.39 1.19 3.14 1.55 3.29 1.58.75.15 1.43.15 2.17.15.96 0 1.59 0 2.43-.19a8.329 8.329 0 003.63-1.85z"/></svg>