<svg width="195" height="53" viewBox="0 0 195 53" fill="none" xmlns="http://www.w3.org/2000/svg">
<path d="M49.9278 42.4189H41.5488V51.0001H49.9278V42.4189Z" fill="#CFD600"/>
<g style="mix-blend-mode:multiply">
<path d="M12.7173 12.4388C10.6683 12.4388 9.63477 13.5357 9.63477 15.0639C9.63477 15.8373 9.88113 16.5368 10.3348 17.0236C10.8786 17.5813 11.6147 17.8493 12.7173 17.8493C13.8199 17.8493 14.4358 17.5813 15.0848 16.9157V17.7415H16.8363V11.65C16.8363 9.60097 15.6285 8.52563 13.177 8.52563C11.6868 8.52563 10.8305 8.84916 10.0043 9.85363L11.161 10.9844C11.6687 10.3374 12.1585 10.0847 13.1049 10.0847C14.5049 10.0847 15.0487 10.6239 15.0487 11.7917V12.4388H12.7173ZM15.0487 14.4508C15.0487 15.0978 14.9435 15.5292 14.6641 15.7973C14.1894 16.2471 13.6817 16.318 13.0508 16.318C11.8791 16.318 11.3683 15.8681 11.3683 15.0239C11.3683 14.1796 11.9121 13.7113 12.9997 13.7113H15.0487V14.4477V14.4508Z" fill="#0F172A"/>
<path d="M19.583 4.94522V17.7384H21.3346V16.7678C22.0016 17.5935 22.7376 17.8462 23.681 17.8462C24.5763 17.8462 25.3635 17.5412 25.8532 17.0358C26.7125 16.1392 26.8507 14.6818 26.8507 13.172C26.8507 11.6622 26.7125 10.2264 25.8532 9.32668C25.3635 8.82445 24.5913 8.51941 23.699 8.51941C22.7527 8.51941 22.0166 8.75358 21.3706 9.54237V4.94214H19.583V4.94522ZM23.2273 10.1555C24.8377 10.1555 25.066 11.5575 25.066 13.1751C25.066 14.7927 24.8377 16.2132 23.2273 16.2132C21.617 16.2132 21.3706 14.7927 21.3706 13.1751C21.3706 11.5575 21.596 10.1555 23.2273 10.1555Z" fill="#0F172A"/>
<path d="M7.70929 20.795C6.90412 19.9693 5.85258 19.5009 4.48557 19.5009C3.11857 19.5009 2.06703 19.9693 1.26185 20.795C0.0360531 22.0521 0 23.3278 0 26.0053C0 28.6829 0.0360531 29.9585 1.26185 31.2156C2.06703 32.0414 3.11857 32.5097 4.48557 32.5097C5.51909 32.5097 6.4114 32.2232 7.0964 31.7209L8.34022 32.9781L9.38876 31.9181L8.16296 30.6764C8.93209 29.5641 8.96814 28.3224 8.96814 26.0053C8.96814 23.3278 8.93209 22.0521 7.70629 20.795M6.70883 29.1851L5.50106 27.928L4.44952 29.0064L5.78047 30.356C5.39591 30.661 4.95726 30.7873 4.48557 30.7873C3.73147 30.7873 3.10054 30.4823 2.62885 29.977C1.99793 29.296 1.89277 28.5412 1.89277 26.0053C1.89277 23.4695 1.99793 22.6992 2.62885 22.0183C3.10355 21.516 3.73147 21.2264 4.48557 21.2264C5.23968 21.2264 5.8706 21.516 6.34229 22.0183C6.97322 22.6992 7.07837 23.4726 7.07837 26.0053C7.07837 27.6568 7.04232 28.5196 6.71183 29.1851" fill="#0F172A"/>
<path d="M18.6753 32.405V23.2939H16.8876V28.8462C16.8876 30.2481 16.0464 30.8767 15.0459 30.8767C14.0455 30.8767 13.2583 30.2666 13.2583 28.8462V23.2939H11.4707V29.1173C11.4707 30.1403 11.681 31.003 12.366 31.687C12.8918 32.2078 13.6459 32.5128 14.5562 32.5128C15.4666 32.5128 16.3078 32.1708 16.9207 31.4868V32.405H18.6723H18.6753Z" fill="#0F172A"/>
<path d="M28.5897 27.6075C28.5897 24.9485 27.2047 23.1891 24.8222 23.1891C22.4397 23.1891 21.0547 24.8776 21.0547 27.8417C21.0547 31.3111 22.8243 32.5128 25.0475 32.5128C26.6068 32.5128 27.4661 32.026 28.3764 31.0924L27.2377 29.9985C26.6068 30.6456 26.081 30.9321 25.0836 30.9321C23.6114 30.9321 22.8243 29.9616 22.8243 28.3809H28.5867V27.6075H28.5897ZM22.8273 27.1053C22.8453 26.5476 22.8814 26.261 23.0556 25.8666C23.3531 25.1857 23.966 24.7174 24.8252 24.7174C25.6845 24.7174 26.2793 25.1857 26.5768 25.8666C26.751 26.261 26.7871 26.5476 26.8201 27.1053H22.8273Z" fill="#0F172A"/>
<path d="M33.8262 30.9475C32.9519 30.9475 31.9875 30.7503 31.2694 29.9954L30.0947 31.2001C31.1463 32.2601 32.3721 32.5127 33.8262 32.5127C35.9473 32.5127 37.5216 31.5237 37.5216 29.6195C37.5216 28.0203 36.5572 27.1946 34.7185 27.0313L33.4747 26.9234C32.5974 26.8341 32.2489 26.5106 32.2489 25.882C32.2489 25.1826 32.7747 24.7142 33.8592 24.7142C34.7005 24.7142 35.4876 24.8929 36.0494 25.3767L37.1701 24.2089C36.3469 23.4725 35.2262 23.1829 33.8773 23.1829C32.0205 23.1829 30.5304 24.1719 30.5304 25.9683C30.5304 27.5674 31.4768 28.3223 33.1592 28.4856L34.5773 28.6119C35.4366 28.7013 35.77 29.0618 35.77 29.6904C35.77 30.5531 34.9288 30.9475 33.8262 30.9475Z" fill="#0F172A"/>
<path d="M43.2337 24.6958V23.2939H41.5182V20.6902H41.5152V0H0.460035V4.94224H0.457031V17.7354H8.35861V15.9914H2.3498V4.94224H2.3468V1.93191H39.7336V20.8351V23.2908H38.7181V24.6927H39.7336V29.8691C39.7336 31.1817 40.5027 32.4019 42.1701 32.4019H43.2367V30.8397H42.5006C41.8336 30.8397 41.5182 30.4453 41.5182 29.7798V24.6958H43.2337Z" fill="#0F172A"/>
<path d="M39.7126 40.4746H2.34087V33.6836H0.454102V42.4126H0.511186H2.34087H39.7126H41.5153V40.4746V33.6836H39.7126V40.4746Z" fill="#0F172A"/>
<path d="M68.3591 34.229V14.9654H62.864V21.7471C62.864 24.1936 62.7228 26.2179 62.4344 27.8232C62.149 29.4285 61.7104 30.7072 61.1185 31.6562C60.5266 32.6052 59.7905 33.2739 58.9103 33.6559C58.03 34.038 57.0055 34.229 55.8337 34.229H54.0762V30.168H54.7161C55.29 30.168 55.8127 30.0602 56.2814 29.8414C56.7501 29.6226 57.1587 29.1974 57.5102 28.5627C57.8617 27.928 58.1321 27.0498 58.3244 25.9252C58.5167 24.8006 58.6128 23.3216 58.6128 21.4852V10.9044H72.7635V34.229H68.3561H68.3591Z" fill="#0F172A"/>
<path d="M86.3108 34.2291V32.7563C85.9473 33.1291 85.6498 33.3941 85.4155 33.5574C85.1812 33.7207 84.9047 33.8686 84.5863 34.0011C83.9463 34.263 83.1592 34.3955 82.2218 34.3955C80.4342 34.3955 79.0492 33.9333 78.0697 33.0028C77.0903 32.0753 76.6006 30.7689 76.6006 29.0866C76.6006 27.5367 77.1053 26.3196 78.1178 25.4323C79.1303 24.548 80.5183 24.1043 82.2879 24.1043H86.2177V23.2539C86.2177 22.2925 85.9713 21.6054 85.4846 21.1895C84.9949 20.7735 84.1867 20.5671 83.057 20.5671C82.6935 20.5671 82.375 20.5886 82.0986 20.6318C81.8222 20.6749 81.5608 20.7519 81.3175 20.8598C81.0711 20.9707 80.8428 21.1124 80.6295 21.285C80.4162 21.4606 80.1818 21.6886 79.9265 21.9721L77.2736 19.3192C77.5079 19.0788 77.7212 18.8724 77.9135 18.6968C78.1058 18.5211 78.28 18.3702 78.4393 18.2377C78.5985 18.1052 78.7638 17.9912 78.935 17.8926C79.1063 17.794 79.2955 17.6923 79.5088 17.5814C80.4462 17.1654 81.669 16.959 83.1832 16.959C87.9752 16.959 90.3698 18.9679 90.3698 22.9858V34.2229H86.3138L86.3108 34.2291ZM82.9248 27.0222C82.1798 27.0222 81.6029 27.1855 81.2003 27.5121C80.7947 27.8387 80.5934 28.3194 80.5934 28.9541C80.5934 30.2636 81.4677 30.9199 83.2133 30.9199C84.3009 30.9199 85.07 30.6919 85.5297 30.2328C85.9863 29.7737 86.2177 29.0095 86.2177 27.9404V27.0222H82.9279H82.9248Z" fill="#0F172A"/>
<path d="M101.516 34.4262C100.281 34.4262 99.1455 34.2136 98.115 33.7884C97.0815 33.3632 96.2884 32.6915 95.7355 31.7733C95.2458 30.966 94.9003 29.9123 94.696 28.612C94.4947 27.3117 94.3926 25.8667 94.3926 24.2706C94.3926 22.2832 94.4286 20.6348 94.5037 19.3253C94.5789 18.0158 94.7171 16.9343 94.9183 16.0808C95.1196 15.2304 95.3931 14.5463 95.7325 14.0318C96.072 13.5203 96.5107 13.0427 97.0425 12.6052C97.5532 12.1892 98.1331 11.8626 98.782 11.6223C99.431 11.3819 100.161 11.1971 100.969 11.0646C101.777 10.9321 102.685 10.8397 103.685 10.7873C104.686 10.7318 105.803 10.7041 107.038 10.7041V14.3738C106.506 14.4169 105.942 14.4447 105.344 14.457C104.746 14.4693 104.151 14.5001 103.556 14.5556C102.961 14.611 102.375 14.6912 101.798 14.8021C101.225 14.913 100.702 15.0979 100.233 15.3598C99.467 15.7757 98.9232 16.2718 98.6048 16.8511C98.2863 17.4303 98.1271 18.2438 98.1271 19.2914C98.4455 18.7244 98.9893 18.253 99.7554 17.8833C100.522 17.5135 101.363 17.3256 102.279 17.3256C103.322 17.3256 104.148 17.4457 104.755 17.6861C105.362 17.9264 105.899 18.2653 106.368 18.7029C107.113 19.4023 107.651 20.3636 107.981 21.5869C108.312 22.8101 108.477 24.1535 108.477 25.6171C108.477 27.321 108.318 28.6952 107.997 29.7459C107.678 30.7935 107.155 31.6994 106.431 32.4635C105.836 33.0982 105.115 33.582 104.274 33.9209C103.433 34.2598 102.51 34.4293 101.51 34.4293L101.516 34.4262ZM101.453 30.5932C101.859 30.5932 102.231 30.5285 102.571 30.396C102.91 30.2635 103.211 30.0478 103.466 29.7397C104.04 29.0187 104.328 27.6753 104.328 25.7095C104.328 23.7437 104.052 22.5421 103.499 21.8426C103.265 21.516 102.973 21.2818 102.622 21.137C102.27 20.9953 101.883 20.9244 101.456 20.9244C101.029 20.9244 100.642 20.9891 100.29 21.1216C99.9387 21.2541 99.6353 21.4821 99.3799 21.8087C99.1245 22.1569 98.9202 22.6561 98.773 23.3C98.6228 23.944 98.5507 24.7359 98.5507 25.6756C98.5507 26.7232 98.6318 27.5798 98.791 28.2484C98.9503 28.914 99.1786 29.4224 99.479 29.7705C99.7134 30.0756 100.002 30.2882 100.341 30.4084C100.681 30.5285 101.053 30.5871 101.459 30.5871L101.453 30.5932Z" fill="#0F172A"/>
<path d="M112.729 34.229V10.9043H117.136V21.9781L124.482 10.9043H129.784L122.15 21.8456L130.551 34.229H125.122L117.136 22.0428V34.229H112.729Z" fill="#0F172A"/>
<path d="M146.366 29.3052C146.366 30.815 145.906 32.0136 144.993 32.901C144.076 33.7884 142.83 34.229 141.255 34.229H132.759V17.1592H140.97C142.544 17.1592 143.797 17.5782 144.722 18.4194C145.648 19.2575 146.11 20.3975 146.11 21.8364C146.11 23.4048 145.407 24.6033 144.001 25.4322C144.809 25.8697 145.407 26.3966 145.789 27.0098C146.173 27.6229 146.363 28.3871 146.363 29.3083L146.366 29.3052ZM136.878 20.3051V23.9101H139.975C141.318 23.9101 141.988 23.3031 141.988 22.0922C141.988 20.8813 141.318 20.3081 139.975 20.3081H136.878V20.3051ZM142.244 29.0834C142.244 28.4487 142.063 27.9649 141.7 27.626C141.336 27.2871 140.826 27.1176 140.168 27.1176H136.878V31.0831H140.168C140.829 31.0831 141.339 30.9013 141.7 30.5439C142.06 30.1834 142.244 29.6966 142.244 29.0865V29.0834Z" fill="#0F172A"/>
<path d="M153.606 27.022C153.733 29.5548 154.997 30.8211 157.398 30.8211C158.098 30.8211 158.738 30.701 159.312 30.4606C159.609 30.3312 159.874 30.1833 160.108 30.0169C160.342 29.8536 160.64 29.5856 161 29.2158L163.518 31.7393C163.199 32.0444 162.923 32.3032 162.689 32.5096C162.454 32.7161 162.232 32.8979 162.019 33.0488C161.805 33.2029 161.589 33.3385 161.367 33.4586C161.144 33.5788 160.904 33.6928 160.649 33.8037C160.159 34.0009 159.633 34.1519 159.071 34.2628C158.51 34.3707 157.897 34.4261 157.239 34.4261C152.095 34.4261 149.526 31.499 149.526 25.6478C149.526 24.3167 149.698 23.1151 150.037 22.0428C150.377 20.9736 150.854 20.0616 151.47 19.3067C152.086 18.5518 152.84 17.9756 153.733 17.5689C154.625 17.1653 155.634 16.9619 156.761 16.9619C157.888 16.9619 158.864 17.1529 159.756 17.535C160.649 17.9171 161.409 18.4624 162.037 19.1742C162.665 19.8829 163.145 20.7425 163.488 21.747C163.827 22.7515 163.999 23.8761 163.999 25.1209V27.022H153.606ZM159.94 24.1072C159.877 22.9179 159.57 22.0151 159.023 21.3957C158.476 20.7795 157.722 20.4683 156.761 20.4683C155.8 20.4683 155.036 20.7826 154.481 21.4112C153.925 22.0397 153.624 22.9363 153.582 24.1041H159.94V24.1072Z" fill="#0F172A"/>
<path d="M179.969 32.0999C179.479 32.6022 179.074 32.9627 178.755 33.1814C178.437 33.4002 178.052 33.6066 177.605 33.8038C176.709 34.2198 175.676 34.4262 174.507 34.4262C172.122 34.4262 170.28 33.6621 168.982 32.1338C167.684 30.6055 167.032 28.4117 167.032 25.5493C167.032 22.8409 167.687 20.7334 168.997 19.2267C170.307 17.72 172.143 16.9651 174.507 16.9651C175.679 16.9651 176.712 17.1623 177.605 17.5536C178.052 17.7508 178.434 17.9572 178.755 18.176C179.074 18.3947 179.479 18.7553 179.969 19.2575L177.157 22.1415C176.667 21.6393 176.232 21.2911 175.847 21.0939C175.463 20.8967 175.006 20.7981 174.474 20.7981C172.281 20.7981 171.184 22.425 171.184 25.6787C171.184 28.9325 172.281 30.5932 174.474 30.5932C175.027 30.5932 175.49 30.4946 175.862 30.2974C176.235 30.1002 176.664 29.752 177.157 29.2498L179.969 32.0999Z" fill="#0F172A"/>
<path d="M189.935 20.9275V34.229H185.783V20.9275H180.895V17.1592H194.727V20.9275H189.935Z" fill="#0F172A"/>
</g>
<path d="M62.74 50H61.98V43.56H59.56V46C59.56 49 58.84 50 57.48 50H57.12V49.32H57.31C58.19 49.32 58.82 48.73 58.82 45.77V42.88H62.74V50ZM70.4576 50H69.6476L69.0776 48.39H65.9676L65.3976 50H64.5876L67.2076 42.88H67.8476L70.4576 50ZM68.8576 47.73L67.5376 43.97L66.1976 47.73H68.8576ZM77.142 47.91C77.142 49.16 76.282 50 74.952 50H72.262V42.88H76.702V43.56H73.022V45.81H74.952C76.282 45.81 77.142 46.65 77.142 47.91ZM76.382 47.91C76.382 47.01 75.832 46.49 74.882 46.49H73.022V49.32H74.882C75.832 49.32 76.382 48.8 76.382 47.91ZM84.1857 46.44C84.1857 48.07 84.1357 48.69 83.4657 49.36C83.0257 49.8 82.4357 50.06 81.6957 50.06C80.9557 50.06 80.3557 49.8 79.9157 49.36C79.2457 48.69 79.2057 48.07 79.2057 46.44C79.2057 44.81 79.2457 44.19 79.9157 43.52C80.3557 43.08 80.9557 42.82 81.6957 42.82C82.4357 42.82 83.0257 43.08 83.4657 43.52C84.1357 44.19 84.1857 44.81 84.1857 46.44ZM83.4257 46.44C83.4257 44.98 83.3757 44.46 82.9257 44C82.5957 43.67 82.1757 43.5 81.6957 43.5C81.2157 43.5 80.7957 43.67 80.4657 44C80.0157 44.46 79.9657 44.98 79.9657 46.44C79.9657 47.9 80.0157 48.42 80.4657 48.88C80.7957 49.21 81.2157 49.38 81.6957 49.38C82.1757 49.38 82.5957 49.21 82.9257 48.88C83.3757 48.42 83.4257 47.9 83.4257 46.44ZM91.5296 44.97C91.5296 46.24 90.6196 47.07 89.3296 47.07H87.4396V50H86.6796V42.88H89.3296C90.6196 42.88 91.5296 43.7 91.5296 44.97ZM90.7696 44.97C90.7696 44.03 90.1596 43.56 89.2696 43.56H87.4396V46.39H89.2696C90.1596 46.39 90.7696 45.91 90.7696 44.97ZM98.1404 50H97.3304L96.7604 48.39H93.6504L93.0804 50H92.2704L94.8904 42.88H95.5304L98.1404 50ZM96.5404 47.73L95.2204 43.97L93.8804 47.73H96.5404ZM103.548 43.56H101.488V50H100.728V43.56H98.668V42.88H103.548V43.56ZM110.091 46.44C110.091 48.07 110.041 48.69 109.371 49.36C108.931 49.8 108.341 50.06 107.601 50.06C106.861 50.06 106.261 49.8 105.821 49.36C105.151 48.69 105.111 48.07 105.111 46.44C105.111 44.81 105.151 44.19 105.821 43.52C106.261 43.08 106.861 42.82 107.601 42.82C108.341 42.82 108.931 43.08 109.371 43.52C110.041 44.19 110.091 44.81 110.091 46.44ZM109.331 46.44C109.331 44.98 109.281 44.46 108.831 44C108.501 43.67 108.081 43.5 107.601 43.5C107.121 43.5 106.701 43.67 106.371 44C105.921 44.46 105.871 44.98 105.871 46.44C105.871 47.9 105.921 48.42 106.371 48.88C106.701 49.21 107.121 49.38 107.601 49.38C108.081 49.38 108.501 49.21 108.831 48.88C109.281 48.42 109.331 47.9 109.331 46.44ZM117.435 44.97C117.435 46.24 116.525 47.07 115.235 47.07H113.345V50H112.585V42.88H115.235C116.525 42.88 117.435 43.7 117.435 44.97ZM116.675 44.97C116.675 44.03 116.065 43.56 115.175 43.56H113.345V46.39H115.175C116.065 46.39 116.675 45.91 116.675 44.97ZM124.684 50H123.924V44.19L120.304 50H119.584V42.88H120.344V48.68L123.964 42.88H124.684V50ZM129.412 47.07L127.862 50H126.972L128.612 46.96C127.672 46.73 127.082 45.99 127.082 44.97C127.082 43.7 127.962 42.88 129.282 42.88H131.932V50H131.172V47.07H129.412ZM131.172 46.39V43.55H129.352C128.402 43.55 127.842 44.08 127.842 44.97C127.842 45.86 128.402 46.39 129.352 46.39H131.172ZM142.765 47.91C142.765 49.16 141.905 50 140.575 50H137.885V42.88H142.325V43.56H138.645V45.81H140.575C141.905 45.81 142.765 46.65 142.765 47.91ZM142.005 47.91C142.005 47.01 141.455 46.49 140.505 46.49H138.645V49.32H140.505C141.455 49.32 142.005 48.8 142.005 47.91ZM149.234 42.88L146.654 48.89C146.374 49.54 145.964 50 145.254 50H144.634V49.32H145.084C145.574 49.32 145.814 49.1 146.024 48.61L146.314 47.94L143.964 42.88H144.774L146.694 47.09L148.424 42.88H149.234ZM149.687 49.32H150.317C150.967 48.3 151.217 47.02 151.217 45.28V42.88H155.107V49.32H155.957V51.72H155.207V50H150.437V51.72H149.687V49.32ZM151.167 49.32H154.347V43.56H151.937V45.75C151.937 47.07 151.737 48.32 151.167 49.32ZM162.343 42.88L159.763 48.89C159.483 49.54 159.073 50 158.363 50H157.743V49.32H158.193C158.683 49.32 158.923 49.1 159.133 48.61L159.423 47.94L157.073 42.88H157.883L159.803 47.09L161.533 42.88H162.343ZM172.912 51.72H172.162V50H164.162V42.88H164.922V49.32H167.732V42.88H168.502V49.32H171.312V42.88H172.072V49.32H172.912V51.72ZM179.467 50H175.047V42.88H179.467V43.56H175.807V46.07H178.927V46.75H175.807V49.32H179.467V50ZM186.093 43.56H182.573V50H181.813V42.88H186.093V43.56ZM192.847 46.44C192.847 48.07 192.797 48.69 192.127 49.36C191.687 49.8 191.097 50.06 190.357 50.06C189.617 50.06 189.017 49.8 188.577 49.36C187.907 48.69 187.867 48.07 187.867 46.44C187.867 44.81 187.907 44.19 188.577 43.52C189.017 43.08 189.617 42.82 190.357 42.82C191.097 42.82 191.687 43.08 192.127 43.52C192.797 44.19 192.847 44.81 192.847 46.44ZM192.087 46.44C192.087 44.98 192.037 44.46 191.587 44C191.257 43.67 190.837 43.5 190.357 43.5C189.877 43.5 189.457 43.67 189.127 44C188.677 44.46 188.627 44.98 188.627 46.44C188.627 47.9 188.677 48.42 189.127 48.88C189.457 49.21 189.877 49.38 190.357 49.38C190.837 49.38 191.257 49.21 191.587 48.88C192.037 48.42 192.087 47.9 192.087 46.44Z" fill="#0F172A"/>
</svg>
