<svg width="118" height="32" viewBox="0 0 118 32" fill="none" xmlns="http://www.w3.org/2000/svg">
<path d="M61 21.041H61.8703C62.3645 21.041 62.7943 20.9547 63.1596 20.7823C63.5464 20.6098 63.8687 20.2971 64.1266 19.8444C64.3845 19.3916 64.5779 18.7879 64.7068 18.0332C64.8357 17.257 64.9002 16.276 64.9002 15.0902V7.71634H78.1158V24.5338H74.4412V11.1445H68.5103V16.3515C68.5103 17.9039 68.3706 19.2083 68.0913 20.2648C67.8334 21.3213 67.4359 22.1621 66.8987 22.7874C66.3614 23.4127 65.706 23.8655 64.9324 24.1458C64.1588 24.4045 63.2778 24.5338 62.2893 24.5338H61V21.041Z" fill="#3981F1"/>
<path d="M80.7538 16.0928C80.7538 14.8207 80.9687 13.6564 81.3985 12.5999C81.8283 11.5218 82.4407 10.5947 83.2358 9.81853C84.0309 9.04234 84.9764 8.43863 86.0723 8.00741C87.1682 7.55464 88.3823 7.32825 89.7146 7.32825C91.0255 7.32825 92.2288 7.55464 93.3247 8.00741C94.4422 8.43863 95.3984 9.04234 96.1935 9.81853C96.9886 10.5947 97.601 11.5218 98.0308 12.5999C98.482 13.6564 98.7077 14.8207 98.7077 16.0928C98.7077 17.3648 98.482 18.5399 98.0308 19.618C97.601 20.6744 96.9886 21.5908 96.1935 22.367C95.3984 23.1432 94.4422 23.7469 93.3247 24.1781C92.2288 24.6093 91.0255 24.8249 89.7146 24.8249C88.4038 24.8249 87.2005 24.6093 86.1045 24.1781C85.0086 23.7469 84.0631 23.1432 83.268 22.367C82.4729 21.5908 81.8498 20.6744 81.3985 19.618C80.9687 18.5399 80.7538 17.3648 80.7538 16.0928ZM84.5573 16.0928C84.5573 16.8474 84.6755 17.5481 84.9119 18.1949C85.1698 18.8418 85.5243 19.4024 85.9756 19.8767C86.4269 20.351 86.9641 20.7283 87.5873 21.0086C88.2319 21.2674 88.941 21.3967 89.7146 21.3967C90.4882 21.3967 91.1866 21.2782 91.8098 21.041C92.4545 20.7823 93.0024 20.4265 93.4537 19.9737C93.9049 19.4994 94.2595 18.9388 94.5174 18.292C94.7752 17.6451 94.9042 16.9121 94.9042 16.0928C94.9042 15.2734 94.7645 14.5404 94.4851 13.8935C94.2273 13.2252 93.862 12.6646 93.3892 12.2118C92.9165 11.7375 92.3685 11.3817 91.7453 11.1445C91.1222 10.8858 90.4453 10.7564 89.7146 10.7564C88.984 10.7564 88.2964 10.8858 87.6517 11.1445C87.0286 11.3817 86.4806 11.7375 86.0078 12.2118C85.5566 12.6646 85.202 13.2252 84.9441 13.8935C84.6863 14.5404 84.5573 15.2734 84.5573 16.0928Z" fill="#3981F1"/>
<path d="M101.358 7.71634H105.033V14.5404L112.285 7.71634H117.088L108.933 15.3166L117.378 24.5338H112.672L106.258 17.6128L105.033 18.8094V24.5338H101.358V7.71634Z" fill="#3981F1"/>
<path d="M0.578125 7.71583H3.8726L9.75098 15.3383L15.6294 7.71583H18.6655V24.5112H14.9834V14.0787L9.78328 20.8291L4.26019 13.9818V24.5112H0.578125V7.71583Z" fill="#FF4A37"/>
<path d="M25.0632 17.3732C25.2786 18.7728 25.8384 19.7956 26.7428 20.4416C27.6471 21.066 28.7776 21.3782 30.1341 21.3782C31.1031 21.3782 31.9644 21.2275 32.718 20.926C33.4932 20.6031 34.0961 20.097 34.5268 19.408H38.5318C37.9074 21.0229 36.8523 22.3257 35.3665 23.3162C33.9023 24.3067 32.1582 24.8019 30.1341 24.8019C28.8207 24.8019 27.6148 24.5866 26.5167 24.1559C25.4185 23.7253 24.4711 23.1224 23.6744 22.3472C22.8777 21.572 22.2532 20.6569 21.8011 19.6018C21.3704 18.5252 21.1551 17.3516 21.1551 16.0812C21.1551 14.8108 21.3704 13.648 21.8011 12.593C22.2317 11.5163 22.8454 10.5904 23.6421 9.81525C24.4388 9.04008 25.3862 8.43717 26.4844 8.00652C27.5825 7.55434 28.7991 7.32825 30.1341 7.32825C31.4476 7.32825 32.6535 7.54357 33.7516 7.97422C34.8498 8.40487 35.7972 9.00778 36.5939 9.78296C37.3906 10.5366 38.0043 11.4517 38.4349 12.5284C38.8871 13.605 39.1132 14.7893 39.1132 16.0812C39.1132 16.5334 39.0809 16.9641 39.0163 17.3732H25.0632ZM30.1341 10.655C28.8853 10.655 27.8086 10.9457 26.9043 11.5271C25.9999 12.0869 25.4077 13.0451 25.1278 14.4017H35.1728C34.8713 13.0451 34.2576 12.0869 33.3317 11.5271C32.4274 10.9457 31.3615 10.655 30.1341 10.655Z" fill="#FF4A37"/>
<path d="M40.0876 21.0875H42.0256C42.7792 20.1186 43.2852 19.0096 43.5436 17.7608C43.802 16.5119 43.9312 15.1015 43.9312 13.5296V7.71583H57.4321V21.0875H59.7899V28.3548H56.3662V24.5112H43.5113V28.3548H40.0876V21.0875ZM53.75 21.0875V11.1395H47.4195V15.4352C47.4195 16.4688 47.2795 17.5024 46.9996 18.5359C46.7197 19.548 46.3321 20.3985 45.8368 21.0875H53.75Z" fill="#FF4A37"/>
</svg>
