<svg width="185" height="185" viewBox="0 0 185 185" fill="none" xmlns="http://www.w3.org/2000/svg">
<path d="M92.5004 2.75086e-06C104.648 2.89571e-06 116.676 2.39259 127.899 7.04115C139.121 11.6897 149.318 18.5032 157.908 27.0926C166.497 35.682 173.311 45.8792 177.959 57.1018C182.608 68.3244 185 80.3527 185 92.5C185 104.647 182.608 116.676 177.959 127.898C173.311 139.121 166.497 149.318 157.908 157.907C149.318 166.497 139.121 173.31 127.899 177.959C116.676 182.607 104.648 185 92.5004 185L21.7651 87.0588L92.5004 2.75086e-06Z" fill="#00A5E3"/>
<path d="M92.5 185C80.3527 185 68.3244 182.607 57.1018 177.959C45.8792 173.31 35.682 166.497 27.0926 157.907C18.5032 149.318 11.6897 139.121 7.04114 127.898C2.39258 116.676 -5.10525e-06 104.647 -4.0433e-06 92.5C-2.98135e-06 80.3527 2.39258 68.3244 7.04114 57.1018C11.6897 45.8792 18.5032 35.682 27.0926 27.0926C35.682 18.5032 45.8792 11.6897 57.1018 7.04113C68.3244 2.39258 80.3527 -5.63623e-06 92.5 -4.0433e-06L92.5 41.6145C85.8176 41.6145 79.2007 42.9307 73.027 45.4879C66.8532 48.0451 61.2437 51.7933 56.5185 56.5185C51.7933 61.2437 48.0451 66.8532 45.4879 73.0269C42.9307 79.2007 41.6145 85.8176 41.6145 92.5C41.6145 99.1824 42.9307 105.799 45.4879 111.973C48.0451 118.147 51.7933 123.756 56.5185 128.481C61.2437 133.207 66.8532 136.955 73.0269 139.512C79.2007 142.069 85.8176 143.386 92.5 143.386L92.5 185Z" fill="#434E52"/>
<path d="M130.936 124.65L130.394 123.589L129.443 124.307C121.267 130.486 112.114 133.568 101.954 133.568C90.1154 133.568 80.5093 129.822 73.0474 122.372C65.7032 114.928 62 105.17 62 93C62 80.5839 65.5466 70.7688 72.5534 63.4447C79.569 56.1113 88.5511 52.4321 99.5846 52.4321C109.209 52.4321 117.929 55.0243 125.772 60.2082L126.64 60.782L127.179 59.8918L136.486 44.5151L136.915 43.8063L136.299 43.253C127.158 35.0503 114.882 31 99.5846 31C80.305 31 65.1774 36.8177 54.3424 48.5569C43.434 60.3659 38 75.2057 38 93C38 111.584 43.7178 126.613 55.2201 137.983L55.2236 137.986C66.8306 149.346 81.8171 155 100.092 155C107.873 155 115.264 153.743 122.259 151.224C129.35 148.712 134.863 145.43 138.727 141.338L139.212 140.824L138.89 140.195L130.936 124.65Z" fill="white" stroke="white" stroke-width="2"/>
</svg>
