<svg width="16" height="16" viewBox="0 0 16 16" fill="none" xmlns="http://www.w3.org/2000/svg">
<g clip-path="url(#clip0_1748_7590)">
<path d="M0 4.95383C0 2.61857 0 1.45094 0.725471 0.725471C1.45094 0 2.61857 0 4.95382 0H11.0462C13.3814 0 14.5491 0 15.2745 0.725471C16 1.45094 16 2.61857 16 4.95383V11.0462C16 13.3814 16 14.5491 15.2745 15.2745C14.5491 16 13.3814 16 11.0462 16H4.95383C2.61857 16 1.45094 16 0.725471 15.2745C0 14.5491 0 13.3814 0 11.0462V4.95383Z" fill="#13AB7B"/>
<path d="M2.10637 8.37876C2.04339 10.646 4.8768 12.7715 8.11815 12.7715C14.6785 12.7743 14.4941 6.64474 12.1404 6.25826C10.6714 6.01706 10.109 9.34384 9.53783 9.35493C9.06545 9.35493 8.34921 6.09133 7.2706 6.17451C6.04504 6.27433 5.49474 9.12202 5.28678 9.30503C4.97069 9.57954 4.75146 8.70673 4.49955 9.27354C4.3596 9.58843 5.34976 10.4072 5.72763 10.0293C6.13699 9.74588 6.54635 7.02472 7.22255 7.09835C7.77443 7.15844 8.462 10.194 9.53783 10.2051C10.7939 10.219 11.2736 6.79358 12.1404 6.95103C13.3684 7.17409 13.5361 11.8416 8.29838 11.8111C6.41845 11.8111 3.36951 10.7531 3.30296 8.31578C3.23641 6.4081 5.37867 4.43924 8.29838 4.48083C9.88417 4.60005 11.033 4.94846 11.805 4.85197C12.0569 4.82048 12.4464 4.43862 12.4464 4.22019C12.4464 4.00175 11.868 3.56091 11.2736 3.2608C10.7659 3.05708 10.1839 3.12006 9.75821 3.18303C9.09694 3.28087 8.90007 3.36894 8.43425 3.3828C7.14492 3.39667 5.81676 3.68781 5.03762 4.03718C2.95251 4.96884 2.02596 6.72063 2.10637 8.37876Z" fill="white"/>
<path d="M10.6343 3.86285C10.9729 3.87802 11.1373 3.87362 11.1373 3.76639C11.1373 3.65916 10.882 3.58867 10.7654 3.56129C10.523 3.50436 10.2997 3.51821 10.2599 3.6488C10.2202 3.77938 10.3803 3.85526 10.6343 3.86285Z" fill="#13AB7B"/>
</g>
<defs>
<clipPath id="clip0_1748_7590">
<rect width="16" height="16" fill="white"/>
</clipPath>
</defs>
</svg>
