<svg width="106" height="36" viewBox="0 0 106 36" fill="none" xmlns="http://www.w3.org/2000/svg">
<path d="M34.051 14.5947H31.2439L29.7793 11.7127H41.4961L40.0315 14.5947H37.2854V27.288H34.051V14.5947Z" fill="#293244"/>
<path d="M54.9222 11.7127V14.656H48.7587V17.7834H54.4951V20.7268H48.7587V24.2833H55.1053V27.288H45.4023V11.7127H54.9222Z" fill="#293244"/>
<path d="M61.9403 15.5149H59.0111C58.8891 14.3498 59.4383 13.1847 60.3537 12.4488C61.3911 11.713 62.6726 11.3451 63.9541 11.4064C65.2967 11.3451 66.6392 11.7743 67.6767 12.6328C68.592 13.43 69.0802 14.5951 69.0802 15.8215C69.0802 16.4347 68.8972 17.0479 68.592 17.5384C68.2869 18.0903 67.7987 18.5196 67.3105 18.8262C68.9582 19.4394 69.9956 21.0337 69.9346 22.7506C69.9956 24.0997 69.3854 25.3874 68.3479 26.2459C67.0664 27.1657 65.5408 27.6563 63.9541 27.5336C62.4895 27.5949 61.0249 27.1657 59.8655 26.1846C58.8891 25.3261 58.3398 23.9771 58.3398 22.2601H61.3301C61.269 22.9346 61.5742 23.6091 62.0624 24.0384C62.5506 24.4676 63.2218 24.7129 63.8931 24.7129C64.5644 24.7742 65.2967 24.5289 65.7849 24.0997C66.2731 23.6705 66.5172 23.1186 66.5172 22.444C66.5172 21.8308 66.2731 21.2176 65.7849 20.8497C65.2357 20.4205 64.5644 20.1752 63.8931 20.2365H62.8557V17.5384H63.9541C64.5034 17.5384 64.9916 17.3545 65.4187 16.9865C65.7849 16.6799 66.029 16.1894 66.029 15.6988C66.029 15.2083 65.8459 14.6564 65.4187 14.3498C64.9916 14.0432 64.5034 13.8592 63.9541 13.8592C63.4659 13.8592 62.9167 13.9819 62.4895 14.2271C62.1844 14.6564 61.9403 15.0856 61.9403 15.5149Z" fill="#293244"/>
<path d="M83.7269 18.396L74.9393 27.3488H73.9629V11.7121H77.2582V20.5423L85.9848 11.6508H87.0222V27.2875H83.7269V18.396Z" fill="#293244"/>
<path d="M90.8046 19.5605C90.8046 17.0464 91.5979 15.1454 93.1846 13.6738C94.7102 12.2634 96.724 11.5276 98.7989 11.5889C100.447 11.5889 102.033 12.0794 103.437 12.9992C104.84 13.9804 105.756 15.452 106 17.1077H102.765C102.094 15.3907 100.813 14.5936 98.7989 14.5936C97.5173 14.5322 96.3579 15.0228 95.5035 16.0039C94.6492 16.9851 94.161 18.2728 94.222 19.6218C94.161 20.9095 94.6492 22.136 95.5035 23.1171C96.3579 24.0369 97.5173 24.5888 98.7989 24.5274C99.7142 24.5274 100.63 24.2822 101.362 23.7916C102.094 23.301 102.643 22.5652 102.827 21.7067H106C105.817 23.4237 104.901 25.018 103.498 26.0604C102.155 27.0416 100.508 27.5321 98.7989 27.5321C97.7614 27.5321 96.785 27.3482 95.8086 27.0416C94.8933 26.6737 94.0389 26.1831 93.3066 25.5699C92.5133 24.8954 91.903 24.0369 91.5369 23.0558C91.0487 21.8907 90.8046 20.7256 90.8046 19.5605Z" fill="#293244"/>
<path d="M27.4002 7.54239H27.2782L26.7289 7.66503L26.3018 7.72635H26.0577C25.8136 7.72635 25.6305 7.72635 25.3864 7.72635H25.2644C21.4808 7.72635 18.1854 4.96694 17.5752 1.16508H26.5459L24.2269 5.82542H24.5931C24.8982 5.82542 25.2644 5.7641 25.5695 5.7641L28.5597 0H0L3.9056 7.84899H10.3743V30.1696L10.4353 30.0469C10.6184 29.7403 10.7404 29.495 10.9235 29.1884L10.9845 29.1271C15.6224 20.9715 21.3587 13.6744 28.0715 7.35843L27.4002 7.54239ZM10.3743 6.56126H4.6379L1.9528 1.2264H17.2091C16.5988 3.61789 13.7306 13.7971 11.5947 21.5234V6.56126H10.3743Z" fill="white"/>
<path d="M16.9657 30.0477H11.5955V29.0053C11.1683 29.4345 10.7412 29.8638 10.375 30.3543V31.2741H18.1862V22.8733C17.759 23.1799 17.3929 23.5478 16.9657 23.9157V30.0477Z" fill="white"/>
<path d="M28.3708 0H0L3.87012 7.81028L10.3183 7.80416V31.2289H18.0525V7.81028H24.5006L28.3708 0Z" fill="url(#paint0_linear_1068_531)"/>
<path d="M25.8678 5.75172V5.71713C25.516 5.7606 25.1614 5.78371 24.8064 5.7863C23.2894 5.78283 21.8036 5.39728 20.5168 4.67314C19.2299 3.949 18.1932 2.91509 17.5234 1.68805C17.864 3.25703 18.7632 4.68296 20.0846 5.74929C21.406 6.81562 23.0773 7.46409 24.8447 7.59622L25.8678 5.75172Z" fill="#043F98"/>
<path d="M27.6946 7.16234H27.5618C27.3658 7.21085 27.1761 7.24724 26.98 7.28363L26.5563 7.34427H26.3034C26.0694 7.34427 25.8354 7.38066 25.6015 7.38066H25.5003C23.4257 7.38109 21.4309 6.614 19.9314 5.23913C18.4318 3.86426 17.5431 1.9876 17.4503 0C17.3997 0.133422 17.3491 0.278973 17.2985 0.448783C17.0645 1.29783 13.2451 14.3065 10.7788 22.7424C10.3109 24.3313 10.0643 27.7578 10.0137 29.5408C10.2097 29.2012 10.431 28.8555 10.646 28.5099C15.4141 20.5319 21.3872 13.2748 28.3712 6.97433C28.1562 7.04711 27.9454 7.11382 27.7389 7.17447L27.6946 7.16234Z" fill="url(#paint1_linear_1068_531)"/>
<path d="M10.6676 29.1852C10.4453 29.5288 10.2164 29.8724 10.0137 30.21V30.3849C12.5602 27.7126 15.352 25.2478 18.358 23.0178V18.5685C15.5334 21.9406 12.9638 25.4878 10.6676 29.1852Z" fill="#043F98"/>
<defs>
<linearGradient id="paint0_linear_1068_531" x1="-2.61445" y1="6.21273" x2="23.8874" y2="17.3586" gradientUnits="userSpaceOnUse">
<stop stop-color="#75CEE7"/>
<stop offset="0.57" stop-color="#358FCE"/>
<stop offset="0.87" stop-color="#4172B7"/>
<stop offset="1" stop-color="#434C9F"/>
</linearGradient>
<linearGradient id="paint1_linear_1068_531" x1="12.5621" y1="14.4035" x2="24.4779" y2="18.4383" gradientUnits="userSpaceOnUse">
<stop stop-color="#65BDEA"/>
<stop offset="0.18" stop-color="#E3F0FA"/>
<stop offset="0.4" stop-color="white"/>
</linearGradient>
</defs>
</svg>
